<svg xmlns="http://www.w3.org/2000/svg" xmlns:xlink="http://www.w3.org/1999/xlink" width="40" zoomAndPan="magnify" viewBox="0 0 30 30.000001" height="40" preserveAspectRatio="xMidYMid meet" version="1.0"><defs><clipPath id="95f39f2d8c"><path d="M 6.289062 5.804688 L 23.710938 5.804688 L 23.710938 23.226562 L 6.289062 23.226562 Z M 6.289062 5.804688 " clip-rule="nonzero"/></clipPath></defs><g clip-path="url(#95f39f2d8c)"><path fill="#004aac" d="M 23.703125 14.527344 C 23.703125 13.953125 23.648438 13.386719 23.535156 12.828125 C 23.425781 12.265625 23.257812 11.71875 23.039062 11.191406 C 22.820312 10.664062 22.550781 10.160156 22.234375 9.683594 C 21.917969 9.210938 21.554688 8.769531 21.152344 8.363281 C 20.746094 7.960938 20.304688 7.597656 19.832031 7.28125 C 19.355469 6.964844 18.851562 6.695312 18.324219 6.476562 C 17.796875 6.257812 17.25 6.09375 16.6875 5.980469 C 16.128906 5.867188 15.5625 5.8125 14.988281 5.8125 C 14.417969 5.8125 13.851562 5.867188 13.289062 5.980469 C 12.726562 6.09375 12.183594 6.257812 11.65625 6.476562 C 11.125 6.695312 10.625 6.964844 10.148438 7.28125 C 9.671875 7.597656 9.230469 7.960938 8.828125 8.363281 C 8.421875 8.769531 8.0625 9.210938 7.742188 9.683594 C 7.425781 10.160156 7.15625 10.664062 6.9375 11.191406 C 6.71875 11.71875 6.554688 12.265625 6.441406 12.828125 C 6.332031 13.386719 6.277344 13.953125 6.277344 14.527344 C 6.277344 15.097656 6.332031 15.664062 6.441406 16.226562 C 6.554688 16.789062 6.71875 17.332031 6.9375 17.863281 C 7.15625 18.390625 7.425781 18.890625 7.742188 19.367188 C 8.0625 19.84375 8.421875 20.285156 8.828125 20.6875 C 9.230469 21.09375 9.671875 21.453125 10.148438 21.773438 C 10.625 22.089844 11.125 22.359375 11.65625 22.578125 C 12.183594 22.796875 12.726562 22.960938 13.289062 23.074219 C 13.851562 23.183594 14.417969 23.242188 14.988281 23.242188 C 15.5625 23.242188 16.128906 23.183594 16.6875 23.074219 C 17.25 22.960938 17.796875 22.796875 18.324219 22.578125 C 18.851562 22.359375 19.355469 22.089844 19.832031 21.773438 C 20.304688 21.453125 20.746094 21.09375 21.152344 20.6875 C 21.554688 20.285156 21.917969 19.84375 22.234375 19.367188 C 22.550781 18.890625 22.820312 18.390625 23.039062 17.863281 C 23.257812 17.332031 23.425781 16.789062 23.535156 16.226562 C 23.648438 15.664062 23.703125 15.097656 23.703125 14.527344 Z M 9.546875 15.074219 L 11.285156 13.335938 L 13.761719 15.8125 L 13.761719 8.539062 L 16.21875 8.539062 L 16.21875 15.816406 L 18.695312 13.335938 L 20.429688 15.074219 L 14.988281 20.515625 Z M 9.546875 15.074219 " fill-opacity="1" fill-rule="nonzero"/></g></svg>