<svg xmlns="http://www.w3.org/2000/svg" xmlns:xlink="http://www.w3.org/1999/xlink" width="40" zoomAndPan="magnify" viewBox="0 0 30 30.000001" height="40" preserveAspectRatio="xMidYMid meet" version="1.0"><defs><clipPath id="c339b25e5e"><path d="M 7 6 L 23.710938 6 L 23.710938 23 L 7 23 Z M 7 6 " clip-rule="nonzero"/></clipPath></defs><g clip-path="url(#c339b25e5e)"><path fill="#fefeff" d="M 17.011719 14.46875 L 22.773438 8.707031 C 23.304688 8.179688 23.304688 7.316406 22.773438 6.785156 C 22.246094 6.257812 21.382812 6.257812 20.851562 6.789062 L 15.089844 12.550781 L 9.332031 6.789062 C 8.800781 6.257812 7.9375 6.257812 7.410156 6.785156 C 6.878906 7.316406 6.878906 8.175781 7.410156 8.707031 L 13.171875 14.46875 L 7.410156 20.230469 C 6.878906 20.761719 6.878906 21.621094 7.410156 22.152344 C 7.9375 22.683594 8.800781 22.683594 9.332031 22.152344 L 15.089844 16.390625 L 20.851562 22.152344 C 21.382812 22.683594 22.246094 22.683594 22.773438 22.152344 C 23.304688 21.625 23.304688 20.761719 22.773438 20.230469 Z M 17.011719 14.46875 " fill-opacity="1" fill-rule="evenodd"/></g></svg>