<svg xmlns="http://www.w3.org/2000/svg" xmlns:xlink="http://www.w3.org/1999/xlink" width="40" zoomAndPan="magnify" viewBox="0 0 30 30.000001" height="40" preserveAspectRatio="xMidYMid meet" version="1.0"><defs><clipPath id="0899805d27"><path d="M 6.289062 5.914062 L 23.492188 5.914062 L 23.492188 23.117188 L 6.289062 23.117188 Z M 6.289062 5.914062 " clip-rule="nonzero"/></clipPath><clipPath id="6adc3dde27"><path d="M 14.890625 5.914062 C 10.140625 5.914062 6.289062 9.765625 6.289062 14.515625 C 6.289062 19.265625 10.140625 23.117188 14.890625 23.117188 C 19.640625 23.117188 23.492188 19.265625 23.492188 14.515625 C 23.492188 9.765625 19.640625 5.914062 14.890625 5.914062 Z M 14.890625 5.914062 " clip-rule="nonzero"/></clipPath><clipPath id="ac6a2feeeb"><path d="M 0.289062 0.914062 L 17.492188 0.914062 L 17.492188 18.117188 L 0.289062 18.117188 Z M 0.289062 0.914062 " clip-rule="nonzero"/></clipPath><clipPath id="69466adb07"><path d="M 8.890625 0.914062 C 4.140625 0.914062 0.289062 4.765625 0.289062 9.515625 C 0.289062 14.265625 4.140625 18.117188 8.890625 18.117188 C 13.640625 18.117188 17.492188 14.265625 17.492188 9.515625 C 17.492188 4.765625 13.640625 0.914062 8.890625 0.914062 Z M 8.890625 0.914062 " clip-rule="nonzero"/></clipPath><clipPath id="aafa35f763"><rect x="0" width="18" y="0" height="19"/></clipPath><clipPath id="b1c3e94a4f"><path d="M 6.289062 5.914062 L 23.484375 5.914062 L 23.484375 23.109375 L 6.289062 23.109375 Z M 6.289062 5.914062 " clip-rule="nonzero"/></clipPath><clipPath id="8ec69a9822"><path d="M 14.886719 5.914062 C 10.140625 5.914062 6.289062 9.765625 6.289062 14.511719 C 6.289062 19.257812 10.140625 23.109375 14.886719 23.109375 C 19.632812 23.109375 23.484375 19.257812 23.484375 14.511719 C 23.484375 9.765625 19.632812 5.914062 14.886719 5.914062 Z M 14.886719 5.914062 " clip-rule="nonzero"/></clipPath></defs><g clip-path="url(#0899805d27)"><g clip-path="url(#6adc3dde27)"><g transform="matrix(1, 0, 0, 1, 6, 5)"><g clip-path="url(#aafa35f763)"><g clip-path="url(#ac6a2feeeb)"><g clip-path="url(#69466adb07)"><path fill="#fefeff" d="M 0.289062 0.914062 L 17.492188 0.914062 L 17.492188 18.117188 L 0.289062 18.117188 Z M 0.289062 0.914062 " fill-opacity="1" fill-rule="nonzero"/></g></g></g></g></g></g><g clip-path="url(#b1c3e94a4f)"><g clip-path="url(#8ec69a9822)"><path stroke-linecap="butt" transform="matrix(0.725806, 0, 0, 0.725806, 6.290322, 5.915324)" fill="none" stroke-linejoin="miter" d="M 11.843924 -0.00173871 C 5.304862 -0.00173871 -0.00173538 5.304858 -0.00173538 11.84392 C -0.00173538 18.382982 5.304862 23.689579 11.843924 23.689579 C 18.382986 23.689579 23.689583 18.382982 23.689583 11.84392 C 23.689583 5.304858 18.382986 -0.00173871 11.843924 -0.00173871 Z M 11.843924 -0.00173871 " stroke="#004aac" stroke-width="4" stroke-opacity="1" stroke-miterlimit="4"/></g></g><path fill="#004aac" d="M 15.941406 14.488281 L 19.175781 11.253906 C 19.476562 10.957031 19.476562 10.472656 19.179688 10.175781 C 18.882812 9.878906 18.398438 9.878906 18.097656 10.175781 L 14.863281 13.410156 L 11.628906 10.175781 C 11.332031 9.878906 10.847656 9.878906 10.550781 10.175781 C 10.253906 10.472656 10.253906 10.957031 10.550781 11.253906 L 13.785156 14.488281 L 10.550781 17.722656 C 10.253906 18.023438 10.253906 18.503906 10.550781 18.804688 C 10.847656 19.101562 11.332031 19.101562 11.628906 18.800781 L 14.863281 15.566406 L 18.097656 18.800781 C 18.398438 19.101562 18.878906 19.101562 19.179688 18.804688 C 19.476562 18.507812 19.476562 18.023438 19.175781 17.722656 Z M 15.941406 14.488281 " fill-opacity="1" fill-rule="evenodd"/></svg>