<svg xmlns="http://www.w3.org/2000/svg" xmlns:xlink="http://www.w3.org/1999/xlink" width="40" zoomAndPan="magnify" viewBox="0 0 30 30.000001" height="40" preserveAspectRatio="xMidYMid meet" version="1.0"><defs><clipPath id="dc83ac48a7"><path d="M 6.292969 7.320312 L 23.707031 7.320312 L 23.707031 10.210938 L 6.292969 10.210938 Z M 6.292969 7.320312 " clip-rule="nonzero"/></clipPath><clipPath id="2f5cd93f56"><path d="M 6.292969 13.035156 L 23.707031 13.035156 L 23.707031 15.992188 L 6.292969 15.992188 Z M 6.292969 13.035156 " clip-rule="nonzero"/></clipPath><clipPath id="e6bbd7f5c1"><path d="M 6.292969 18.8125 L 23.707031 18.8125 L 23.707031 21.714844 L 6.292969 21.714844 Z M 6.292969 18.8125 " clip-rule="nonzero"/></clipPath></defs><g clip-path="url(#dc83ac48a7)"><path fill="#fefeff" d="M 22.269531 10.199219 L 7.730469 10.199219 C 6.9375 10.199219 6.292969 9.554688 6.292969 8.757812 C 6.292969 7.964844 6.9375 7.320312 7.730469 7.320312 L 22.269531 7.320312 C 23.0625 7.320312 23.707031 7.964844 23.707031 8.757812 C 23.707031 9.554688 23.0625 10.199219 22.269531 10.199219 " fill-opacity="1" fill-rule="nonzero"/></g><g clip-path="url(#2f5cd93f56)"><path fill="#fefeff" d="M 22.269531 15.957031 L 7.730469 15.957031 C 6.9375 15.957031 6.292969 15.3125 6.292969 14.515625 C 6.292969 13.722656 6.9375 13.078125 7.730469 13.078125 L 22.269531 13.078125 C 23.0625 13.078125 23.707031 13.722656 23.707031 14.515625 C 23.707031 15.3125 23.0625 15.957031 22.269531 15.957031 " fill-opacity="1" fill-rule="nonzero"/></g><g clip-path="url(#e6bbd7f5c1)"><path fill="#fefeff" d="M 22.269531 21.714844 L 7.730469 21.714844 C 6.9375 21.714844 6.292969 21.070312 6.292969 20.273438 C 6.292969 19.480469 6.9375 18.835938 7.730469 18.835938 L 22.269531 18.835938 C 23.0625 18.835938 23.707031 19.480469 23.707031 20.273438 C 23.707031 21.070312 23.0625 21.714844 22.269531 21.714844 " fill-opacity="1" fill-rule="nonzero"/></g></svg>