<svg xmlns="http://www.w3.org/2000/svg" xmlns:xlink="http://www.w3.org/1999/xlink" width="1366" zoomAndPan="magnify" viewBox="0 0 1024.5 576" height="768" preserveAspectRatio="xMidYMid meet" version="1.0"><defs><filter x="0%" y="0%" width="100%" height="100%" id="db920d4c66"><feColorMatrix values="0 0 0 0 1 0 0 0 0 1 0 0 0 0 1 0 0 0 1 0" color-interpolation-filters="sRGB"/></filter><clipPath id="dabbb3601a"><path d="M 0 0.140625 L 1024 0.140625 L 1024 575.859375 L 0 575.859375 Z M 0 0.140625 " clip-rule="nonzero"/></clipPath><mask id="f04626318d"><g filter="url(#db920d4c66)"><rect x="-102.45" width="1229.4" fill="#000000" y="-57.6" height="691.2" fill-opacity="0.41"/></g></mask><clipPath id="1eb3f144fd"><path d="M 0 0.140625 L 1024 0.140625 L 1024 575.859375 L 0 575.859375 Z M 0 0.140625 " clip-rule="nonzero"/></clipPath><clipPath id="05d44f87ce"><path d="M 501 0.140625 L 1024 0.140625 L 1024 149 L 501 149 Z M 501 0.140625 " clip-rule="nonzero"/></clipPath><mask id="de86fade3c"><g filter="url(#db920d4c66)"><rect x="-372.918" width="1770.336" fill="#000000" y="-209.664" height="995.328" fill-opacity="0.63"/></g></mask><clipPath id="8781f7e6ea"><path d="M 1.023438 0.140625 L 523 0.140625 L 523 148 L 1.023438 148 Z M 1.023438 0.140625 " clip-rule="nonzero"/></clipPath><clipPath id="e5fac92c64"><rect x="0" width="523" y="0" height="149"/></clipPath><clipPath id="73a9354979"><path d="M 0 0.140625 L 510 0.140625 L 510 142 L 0 142 Z M 0 0.140625 " clip-rule="nonzero"/></clipPath><mask id="d1c2ff5bdb"><g filter="url(#db920d4c66)"><rect x="-372.918" width="1770.336" fill="#000000" y="-209.664" height="995.328" fill-opacity="0.63"/></g></mask><clipPath id="5cf570d0de"><path d="M 0 0.140625 L 509 0.140625 L 509 141 L 0 141 Z M 0 0.140625 " clip-rule="nonzero"/></clipPath><clipPath id="9be493e551"><rect x="0" width="510" y="0" height="142"/></clipPath><mask id="2964462cbb"><g filter="url(#db920d4c66)"><rect x="-372.918" width="1770.336" fill="#000000" y="-209.664" height="995.328" fill-opacity="0.4788"/></g></mask><clipPath id="a3fec0ffd8"><path d="M 1.023438 1 L 523 1 L 523 155 L 1.023438 155 Z M 1.023438 1 " clip-rule="nonzero"/></clipPath><clipPath id="e1b2ac34e9"><rect x="0" width="523" y="0" height="156"/></clipPath><mask id="c871f0c08a"><g filter="url(#db920d4c66)"><rect x="-372.918" width="1770.336" fill="#000000" y="-209.664" height="995.328" fill-opacity="0.4788"/></g></mask><clipPath id="cd2875fd31"><path d="M 0 1 L 509 1 L 509 155 L 0 155 Z M 0 1 " clip-rule="nonzero"/></clipPath><clipPath id="09a57ce457"><rect x="0" width="510" y="0" height="156"/></clipPath><mask id="b2f3d66c0a"><g filter="url(#db920d4c66)"><rect x="-372.918" width="1770.336" fill="#000000" y="-209.664" height="995.328" fill-opacity="0.4788"/></g></mask><clipPath id="902a1d425a"><path d="M 1.023438 1 L 523 1 L 523 155 L 1.023438 155 Z M 1.023438 1 " clip-rule="nonzero"/></clipPath><clipPath id="8225fcc09f"><rect x="0" width="523" y="0" height="156"/></clipPath><mask id="12b5093153"><g filter="url(#db920d4c66)"><rect x="-372.918" width="1770.336" fill="#000000" y="-209.664" height="995.328" fill-opacity="0.4788"/></g></mask><clipPath id="576744b343"><path d="M 0 0.195312 L 509 0.195312 L 509 155 L 0 155 Z M 0 0.195312 " clip-rule="nonzero"/></clipPath><clipPath id="4d74c7bca9"><rect x="0" width="510" y="0" height="156"/></clipPath><mask id="983703e7a4"><g filter="url(#db920d4c66)"><rect x="-372.918" width="1770.336" fill="#000000" y="-209.664" height="995.328" fill-opacity="0.4788"/></g></mask><clipPath id="65249bc021"><path d="M 1.023438 0.015625 L 523 0.015625 L 523 155 L 1.023438 155 Z M 1.023438 0.015625 " clip-rule="nonzero"/></clipPath><clipPath id="980597b867"><rect x="0" width="523" y="0" height="156"/></clipPath><mask id="7778d06a7b"><g filter="url(#db920d4c66)"><rect x="-372.918" width="1770.336" fill="#000000" y="-209.664" height="995.328" fill-opacity="0.4788"/></g></mask><clipPath id="7ba483d079"><path d="M 0 1 L 509 1 L 509 156 L 0 156 Z M 0 1 " clip-rule="nonzero"/></clipPath><clipPath id="ff3e506ebb"><rect x="0" width="510" y="0" height="157"/></clipPath><clipPath id="202e04ea6c"><path d="M 501 456 L 1024 456 L 1024 575.859375 L 501 575.859375 Z M 501 456 " clip-rule="nonzero"/></clipPath><mask id="e535b36128"><g filter="url(#db920d4c66)"><rect x="-372.918" width="1770.336" fill="#000000" y="-209.664" height="995.328" fill-opacity="0.4788"/></g></mask><clipPath id="de51db9577"><path d="M 1.023438 1 L 523 1 L 523 119.859375 L 1.023438 119.859375 Z M 1.023438 1 " clip-rule="nonzero"/></clipPath><clipPath id="f02e36da2f"><rect x="0" width="523" y="0" height="120"/></clipPath><clipPath id="1b89dea65a"><path d="M 0 449 L 510 449 L 510 575.859375 L 0 575.859375 Z M 0 449 " clip-rule="nonzero"/></clipPath><mask id="02317f0753"><g filter="url(#db920d4c66)"><rect x="-372.918" width="1770.336" fill="#000000" y="-209.664" height="995.328" fill-opacity="0.4788"/></g></mask><clipPath id="ece7ca5bcd"><path d="M 0 1 L 509 1 L 509 126.859375 L 0 126.859375 Z M 0 1 " clip-rule="nonzero"/></clipPath><clipPath id="0d6c6e2135"><rect x="0" width="510" y="0" height="127"/></clipPath><clipPath id="23bf843385"><rect x="0" width="1024" y="0" height="576"/></clipPath><clipPath id="381ecaedbb"><rect x="0" width="1024" y="0" height="576"/></clipPath></defs><g clip-path="url(#dabbb3601a)"><g mask="url(#f04626318d)"><g transform="matrix(1, 0, 0, 1, 0, -0.000000000000058398)"><g clip-path="url(#381ecaedbb)"><g clip-path="url(#1eb3f144fd)"><g transform="matrix(1, 0, 0, 1, 0, -0.000000000000058398)"><g clip-path="url(#23bf843385)"><g clip-path="url(#05d44f87ce)"><g mask="url(#de86fade3c)"><g transform="matrix(1, 0, 0, 1, 501, -0.000000000000058398)"><g clip-path="url(#e5fac92c64)"><g clip-path="url(#8781f7e6ea)"><path fill="#fefeff" d="M 100.726562 63.46875 C 74.871094 92.367188 25.761719 113.351562 0.984375 142.71875 C 5.554688 138.660156 23.878906 137.746094 24.0625 137.714844 C 72.765625 131.761719 107.265625 71.675781 135.890625 34.910156 C 171.710938 -11.101562 191.332031 22.308594 208.109375 28.675781 C 220.199219 33.265625 248.070312 71.1875 250.328125 71.1875 C 287.191406 70.554688 307.542969 21.230469 321.179688 39.226562 C 355.355469 84.421875 366.757812 78.609375 390.488281 104.214844 C 402.214844 116.859375 429.730469 66.566406 451.738281 101.730469 C 462.636719 119.171875 481.832031 124.054688 496.429688 136.132812 C 520.214844 155.875 537.011719 146.152344 525.183594 139.402344 C 482.671875 115.007812 489.070312 122.734375 450.550781 85.835938 C 405.714844 42.898438 426.339844 134.890625 364.183594 62.945312 C 295.378906 -16.703125 307.140625 49.144531 263.363281 56.40625 C 245.574219 59.359375 213.222656 -18.316406 171.015625 -3.625 C 168.996094 -2.914062 105.609375 58.128906 100.804688 63.503906 " fill-opacity="1" fill-rule="evenodd"/></g></g></g></g></g><g clip-path="url(#73a9354979)"><g mask="url(#d1c2ff5bdb)"><g transform="matrix(1, 0, 0, 1, 0, -0.000000000000058398)"><g clip-path="url(#9be493e551)"><g clip-path="url(#5cf570d0de)"><path fill="#fefeff" d="M 80.285156 56.3125 C 54.429688 85.210938 5.320312 106.195312 -19.457031 135.5625 C -14.886719 131.503906 3.4375 130.589844 3.621094 130.558594 C 52.324219 124.605469 86.824219 64.523438 115.449219 27.753906 C 151.269531 -18.257812 170.890625 15.152344 187.667969 21.519531 C 199.753906 26.109375 227.628906 64.03125 229.882812 64.03125 C 266.75 63.398438 287.101562 14.074219 300.738281 32.070312 C 334.910156 77.265625 346.3125 71.453125 370.042969 97.058594 C 381.773438 109.703125 409.285156 59.410156 431.296875 94.574219 C 442.195312 112.015625 461.390625 116.898438 475.988281 128.976562 C 499.773438 148.71875 516.570312 138.996094 504.742188 132.246094 C 462.230469 107.851562 468.628906 115.578125 430.105469 78.679688 C 385.273438 35.742188 405.898438 127.734375 343.742188 55.789062 C 274.9375 -23.859375 286.699219 41.988281 242.921875 49.25 C 225.132812 52.203125 192.777344 -25.472656 150.570312 -10.78125 C 148.554688 -10.070312 85.167969 50.972656 80.359375 56.347656 " fill-opacity="1" fill-rule="evenodd"/></g></g></g></g></g><g mask="url(#2964462cbb)"><g transform="matrix(1, 0, 0, 1, 501, 109)"><g clip-path="url(#e1b2ac34e9)"><g clip-path="url(#a3fec0ffd8)"><path fill="#fefeff" d="M 100.726562 70.261719 C 74.871094 99.15625 25.761719 120.140625 0.984375 149.507812 C 5.554688 145.453125 23.878906 144.539062 24.0625 144.503906 C 72.765625 138.554688 107.265625 78.46875 135.890625 41.699219 C 171.710938 -4.308594 191.332031 29.101562 208.109375 35.464844 C 220.199219 40.054688 248.070312 77.976562 250.328125 77.976562 C 287.191406 77.347656 307.542969 28.019531 321.179688 46.019531 C 355.355469 91.210938 366.757812 85.402344 390.488281 111.007812 C 402.214844 123.652344 429.730469 73.355469 451.738281 108.523438 C 462.636719 125.960938 481.832031 130.847656 496.429688 142.925781 C 520.214844 162.664062 537.011719 152.941406 525.183594 146.195312 C 482.671875 121.796875 489.070312 129.527344 450.550781 92.628906 C 405.714844 49.691406 426.339844 141.679688 364.183594 69.738281 C 295.378906 -9.914062 307.140625 55.9375 263.363281 63.195312 C 245.574219 66.152344 213.222656 -11.527344 171.015625 3.167969 C 168.996094 3.875 105.609375 64.917969 100.804688 70.292969 " fill-opacity="1" fill-rule="evenodd"/></g></g></g></g><g mask="url(#c871f0c08a)"><g transform="matrix(1, 0, 0, 1, 0, 102)"><g clip-path="url(#09a57ce457)"><g clip-path="url(#cd2875fd31)"><path fill="#fefeff" d="M 80.285156 70.105469 C 54.429688 99.003906 5.320312 119.984375 -19.457031 149.351562 C -14.886719 145.296875 3.4375 144.382812 3.621094 144.347656 C 52.324219 138.398438 86.824219 78.3125 115.449219 41.542969 C 151.269531 -4.464844 170.890625 28.945312 187.667969 35.308594 C 199.753906 39.898438 227.628906 77.820312 229.882812 77.820312 C 266.75 77.191406 287.101562 27.863281 300.738281 45.863281 C 334.910156 91.054688 346.3125 85.246094 370.042969 110.851562 C 381.773438 123.496094 409.285156 73.199219 431.296875 108.367188 C 442.195312 125.804688 461.390625 130.691406 475.988281 142.769531 C 499.773438 162.507812 516.570312 152.785156 504.742188 146.039062 C 462.230469 121.640625 468.628906 129.371094 430.105469 92.472656 C 385.273438 49.535156 405.898438 141.523438 343.742188 69.582031 C 274.9375 -10.070312 286.699219 55.78125 242.921875 63.039062 C 225.132812 65.996094 192.777344 -11.683594 150.570312 3.011719 C 148.554688 3.71875 85.167969 64.761719 80.359375 70.136719 " fill-opacity="1" fill-rule="evenodd"/></g></g></g></g><g mask="url(#b2f3d66c0a)"><g transform="matrix(1, 0, 0, 1, 501, 225)"><g clip-path="url(#8225fcc09f)"><g clip-path="url(#902a1d425a)"><path fill="#fefeff" d="M 100.726562 70.050781 C 74.871094 98.949219 25.761719 119.933594 0.984375 149.300781 C 5.554688 145.242188 23.878906 144.328125 24.0625 144.296875 C 72.765625 138.34375 107.265625 78.261719 135.890625 41.492188 C 171.710938 -4.519531 191.332031 28.890625 208.109375 35.257812 C 220.199219 39.847656 248.070312 77.769531 250.328125 77.769531 C 287.191406 77.136719 307.542969 27.8125 321.179688 45.808594 C 355.355469 91.003906 366.757812 85.191406 390.488281 110.796875 C 402.214844 123.441406 429.730469 73.148438 451.738281 108.3125 C 462.636719 125.753906 481.832031 130.636719 496.429688 142.714844 C 520.214844 162.457031 537.011719 152.734375 525.183594 145.984375 C 482.671875 121.589844 489.070312 129.316406 450.550781 92.417969 C 405.714844 49.480469 426.339844 141.472656 364.183594 69.527344 C 295.378906 -10.121094 307.140625 55.726562 263.363281 62.988281 C 245.574219 65.941406 213.222656 -11.734375 171.015625 2.957031 C 168.996094 3.667969 105.609375 64.710938 100.804688 70.085938 " fill-opacity="1" fill-rule="evenodd"/></g></g></g></g><g mask="url(#12b5093153)"><g transform="matrix(1, 0, 0, 1, 0, 218)"><g clip-path="url(#4d74c7bca9)"><g clip-path="url(#576744b343)"><path fill="#fefeff" d="M 80.285156 69.894531 C 54.429688 98.792969 5.320312 119.777344 -19.457031 149.144531 C -14.886719 145.089844 3.4375 144.171875 3.621094 144.140625 C 52.324219 138.1875 86.824219 78.105469 115.449219 41.335938 C 151.269531 -4.675781 170.890625 28.734375 187.667969 35.101562 C 199.753906 39.691406 227.628906 77.613281 229.882812 77.613281 C 266.75 76.980469 287.101562 27.65625 300.738281 45.652344 C 334.910156 90.847656 346.3125 85.035156 370.042969 110.640625 C 381.773438 123.285156 409.285156 72.992188 431.296875 108.15625 C 442.195312 125.597656 461.390625 130.480469 475.988281 142.558594 C 499.773438 162.300781 516.570312 152.578125 504.742188 145.828125 C 462.230469 121.433594 468.628906 129.164062 430.105469 92.261719 C 385.273438 49.324219 405.898438 141.316406 343.742188 69.371094 C 274.9375 -10.277344 286.699219 55.570312 242.921875 62.832031 C 225.132812 65.785156 192.777344 -11.890625 150.570312 2.800781 C 148.554688 3.511719 85.167969 64.554688 80.359375 69.929688 " fill-opacity="1" fill-rule="evenodd"/></g></g></g></g><g mask="url(#983703e7a4)"><g transform="matrix(1, 0, 0, 1, 501, 341)"><g clip-path="url(#980597b867)"><g clip-path="url(#65249bc021)"><path fill="#fefeff" d="M 100.726562 69.84375 C 74.871094 98.738281 25.761719 119.722656 0.984375 149.089844 C 5.554688 145.035156 23.878906 144.121094 24.0625 144.085938 C 72.765625 138.136719 107.265625 78.050781 135.890625 41.28125 C 171.710938 -4.726562 191.332031 28.683594 208.109375 35.046875 C 220.199219 39.636719 248.070312 77.558594 250.328125 77.558594 C 287.191406 76.929688 307.542969 27.601562 321.179688 45.601562 C 355.355469 90.792969 366.757812 84.984375 390.488281 110.589844 C 402.214844 123.234375 429.730469 72.9375 451.738281 108.105469 C 462.636719 125.542969 481.832031 130.429688 496.429688 142.507812 C 520.214844 162.246094 537.011719 152.523438 525.183594 145.777344 C 482.671875 121.378906 489.070312 129.109375 450.550781 92.210938 C 405.714844 49.273438 426.339844 141.261719 364.183594 69.320312 C 295.378906 -10.332031 307.140625 55.519531 263.363281 62.777344 C 245.574219 65.734375 213.222656 -11.945312 171.015625 2.75 C 168.996094 3.457031 105.609375 64.5 100.804688 69.875 " fill-opacity="1" fill-rule="evenodd"/></g></g></g></g><g mask="url(#7778d06a7b)"><g transform="matrix(1, 0, 0, 1, 0, 333)"><g clip-path="url(#ff3e506ebb)"><g clip-path="url(#7ba483d079)"><path fill="#fefeff" d="M 80.285156 70.6875 C 54.429688 99.585938 5.320312 120.566406 -19.457031 149.933594 C -14.886719 145.878906 3.4375 144.964844 3.621094 144.929688 C 52.324219 138.980469 86.824219 78.894531 115.449219 42.128906 C 151.269531 -3.882812 170.890625 29.527344 187.667969 35.890625 C 199.753906 40.480469 227.628906 78.402344 229.882812 78.402344 C 266.75 77.773438 287.101562 28.445312 300.738281 46.445312 C 334.910156 91.636719 346.3125 85.828125 370.042969 111.433594 C 381.773438 124.078125 409.285156 73.78125 431.296875 108.949219 C 442.195312 126.390625 461.390625 131.273438 475.988281 143.351562 C 499.773438 163.089844 516.570312 153.367188 504.742188 146.621094 C 462.230469 122.226562 468.628906 129.953125 430.105469 93.054688 C 385.273438 50.117188 405.898438 142.105469 343.742188 70.164062 C 274.9375 -9.488281 286.699219 56.363281 242.921875 63.621094 C 225.132812 66.578125 192.777344 -11.101562 150.570312 3.59375 C 148.554688 4.300781 85.167969 65.34375 80.359375 70.71875 " fill-opacity="1" fill-rule="evenodd"/></g></g></g></g><g clip-path="url(#202e04ea6c)"><g mask="url(#e535b36128)"><g transform="matrix(1, 0, 0, 1, 501, 456)"><g clip-path="url(#f02e36da2f)"><g clip-path="url(#de51db9577)"><path fill="#fefeff" d="M 100.726562 70.644531 C 74.871094 99.539062 25.761719 120.523438 0.984375 149.890625 C 5.554688 145.835938 23.878906 144.921875 24.0625 144.886719 C 72.765625 138.9375 107.265625 78.851562 135.890625 42.082031 C 171.710938 -3.925781 191.332031 29.484375 208.109375 35.847656 C 220.199219 40.4375 248.070312 78.359375 250.328125 78.359375 C 287.191406 77.730469 307.542969 28.402344 321.179688 46.402344 C 355.355469 91.59375 366.757812 85.785156 390.488281 111.390625 C 402.214844 124.035156 429.730469 73.738281 451.738281 108.90625 C 462.636719 126.34375 481.832031 131.230469 496.429688 143.308594 C 520.214844 163.046875 537.011719 153.324219 525.183594 146.578125 C 482.671875 122.179688 489.070312 129.910156 450.550781 93.011719 C 405.714844 50.074219 426.339844 142.0625 364.183594 70.121094 C 295.378906 -9.53125 307.140625 56.320312 263.363281 63.578125 C 245.574219 66.535156 213.222656 -11.144531 171.015625 3.550781 C 168.996094 4.257812 105.609375 65.300781 100.804688 70.675781 " fill-opacity="1" fill-rule="evenodd"/></g></g></g></g></g><g clip-path="url(#1b89dea65a)"><g mask="url(#02317f0753)"><g transform="matrix(1, 0, 0, 1, 0, 449)"><g clip-path="url(#0d6c6e2135)"><g clip-path="url(#ece7ca5bcd)"><path fill="#fefeff" d="M 80.285156 70.488281 C 54.429688 99.382812 5.320312 120.367188 -19.457031 149.734375 C -14.886719 145.679688 3.4375 144.765625 3.621094 144.730469 C 52.324219 138.78125 86.824219 78.695312 115.449219 41.925781 C 151.269531 -4.082031 170.890625 29.328125 187.667969 35.691406 C 199.753906 40.28125 227.628906 78.203125 229.882812 78.203125 C 266.75 77.574219 287.101562 28.246094 300.738281 46.246094 C 334.910156 91.4375 346.3125 85.628906 370.042969 111.234375 C 381.773438 123.878906 409.285156 73.582031 431.296875 108.75 C 442.195312 126.1875 461.390625 131.074219 475.988281 143.152344 C 499.773438 162.890625 516.570312 153.167969 504.742188 146.421875 C 462.230469 122.023438 468.628906 129.753906 430.105469 92.855469 C 385.273438 49.917969 405.898438 141.90625 343.742188 69.964844 C 274.9375 -9.6875 286.699219 56.164062 242.921875 63.421875 C 225.132812 66.378906 192.777344 -11.300781 150.570312 3.394531 C 148.554688 4.101562 85.167969 65.144531 80.359375 70.519531 " fill-opacity="1" fill-rule="evenodd"/></g></g></g></g></g></g></g></g></g></g></g></g></svg>