<svg xmlns="http://www.w3.org/2000/svg" xmlns:xlink="http://www.w3.org/1999/xlink" width="40" zoomAndPan="magnify" viewBox="0 0 30 30.000001" height="40" preserveAspectRatio="xMidYMid meet" version="1.0"><defs><clipPath id="fa1e6c5f86"><path d="M 3.90625 5.804688 L 26.40625 5.804688 L 26.40625 23.226562 L 3.90625 23.226562 Z M 3.90625 5.804688 " clip-rule="nonzero"/></clipPath></defs><g clip-path="url(#fa1e6c5f86)"><path fill="#004aac" d="M 23.707031 5.804688 L 6.285156 5.804688 C 5.972656 5.804688 5.667969 5.867188 5.378906 5.988281 C 5.085938 6.109375 4.828125 6.28125 4.605469 6.503906 C 4.382812 6.726562 4.210938 6.980469 4.09375 7.273438 C 3.972656 7.5625 3.910156 7.867188 3.910156 8.183594 L 3.910156 20.851562 C 3.910156 21.164062 3.972656 21.46875 4.09375 21.757812 C 4.210938 22.050781 4.382812 22.308594 4.605469 22.53125 C 4.828125 22.753906 5.085938 22.925781 5.378906 23.046875 C 5.667969 23.164062 5.972656 23.226562 6.285156 23.226562 L 23.707031 23.226562 C 24.019531 23.226562 24.324219 23.164062 24.613281 23.046875 C 24.90625 22.925781 25.164062 22.753906 25.386719 22.53125 C 25.609375 22.308594 25.78125 22.050781 25.898438 21.757812 C 26.019531 21.46875 26.082031 21.164062 26.082031 20.851562 L 26.082031 8.183594 C 26.082031 7.867188 26.019531 7.5625 25.898438 7.273438 C 25.78125 6.980469 25.609375 6.726562 25.386719 6.503906 C 25.164062 6.28125 24.90625 6.109375 24.613281 5.988281 C 24.324219 5.867188 24.019531 5.804688 23.707031 5.804688 Z M 5.496094 8.417969 L 12.105469 13.960938 L 12.058594 13.960938 L 5.496094 20.527344 Z M 14.996094 14.277344 L 6.730469 7.390625 L 23.261719 7.390625 Z M 13.183594 15.070312 C 13.226562 15.019531 13.257812 14.964844 13.285156 14.902344 L 14.488281 15.910156 C 14.636719 16.03125 14.804688 16.09375 14.996094 16.09375 C 15.1875 16.09375 15.355469 16.03125 15.503906 15.910156 L 16.707031 14.902344 C 16.734375 14.964844 16.765625 15.019531 16.808594 15.070312 L 23.382812 21.640625 L 6.609375 21.640625 Z M 17.933594 13.945312 L 17.886719 13.945312 L 24.496094 8.417969 L 24.496094 20.527344 Z M 17.933594 13.945312 " fill-opacity="1" fill-rule="nonzero"/></g></svg>