<svg xmlns="http://www.w3.org/2000/svg" width="40" viewBox="0 0 30 30" height="40" preserveAspectRatio="xMidYMid meet"><path fill="#fefeff" d="M 15 5.335938 C 9.929688 5.335938 5.820312 9.445312 5.820312 14.515625 C 5.820312 19.585938 9.929688 23.695312 15 23.695312 C 20.070312 23.695312 24.179688 19.585938 24.179688 14.515625 C 24.179688 9.445312 20.070312 5.335938 15 5.335938 Z M 12.410156 13.347656 C 13.148438 13.347656 13.746094 12.746094 13.746094 12.011719 C 13.746094 11.273438 13.148438 10.675781 12.410156 10.675781 C 11.675781 10.675781 11.078125 11.273438 11.078125 12.011719 C 11.078125 12.746094 11.675781 13.347656 12.410156 13.347656 Z M 17.585938 13.347656 C 18.320312 13.347656 18.921875 12.746094 18.921875 12.011719 C 18.921875 11.273438 18.320312 10.675781 17.585938 10.675781 C 16.847656 10.675781 16.25 11.273438 16.25 12.011719 C 16.25 12.746094 16.847656 13.347656 17.585938 13.347656 Z M 23.128906 14.515625 C 23.128906 15.613281 22.914062 16.675781 22.492188 17.679688 C 22.082031 18.648438 21.496094 19.515625 20.746094 20.265625 C 20 21.011719 19.132812 21.597656 18.164062 22.007812 C 17.160156 22.429688 16.097656 22.644531 15 22.644531 C 13.902344 22.644531 12.835938 22.429688 11.835938 22.007812 C 10.867188 21.597656 9.996094 21.011719 9.25 20.265625 C 8.503906 19.515625 7.917969 18.648438 7.507812 17.679688 C 7.082031 16.675781 6.867188 15.613281 6.867188 14.515625 C 6.867188 13.417969 7.082031 12.351562 7.507812 11.351562 C 7.917969 10.382812 8.503906 9.511719 9.25 8.765625 C 9.996094 8.019531 10.867188 7.433594 11.835938 7.023438 C 12.835938 6.597656 13.902344 6.382812 15 6.382812 C 16.097656 6.382812 17.160156 6.597656 18.164062 7.023438 C 19.132812 7.433594 20 8.019531 20.746094 8.765625 C 21.496094 9.511719 22.082031 10.382812 22.492188 11.351562 C 22.914062 12.351562 23.128906 13.417969 23.128906 14.515625 Z M 20.085938 15.03125 C 19.804688 14.972656 19.523438 15.160156 19.464844 15.445312 C 19.253906 16.472656 18.695312 17.40625 17.882812 18.078125 C 17.0625 18.757812 16.023438 19.132812 14.957031 19.132812 C 13.890625 19.132812 12.851562 18.757812 12.03125 18.078125 C 11.21875 17.402344 10.65625 16.46875 10.449219 15.4375 C 10.390625 15.152344 10.113281 14.96875 9.828125 15.027344 C 9.542969 15.085938 9.359375 15.363281 9.417969 15.652344 C 9.675781 16.914062 10.367188 18.066406 11.359375 18.890625 C 12.371094 19.730469 13.648438 20.191406 14.957031 20.191406 C 16.265625 20.191406 17.542969 19.730469 18.550781 18.894531 C 19.546875 18.070312 20.238281 16.921875 20.496094 15.65625 C 20.554688 15.371094 20.371094 15.09375 20.085938 15.03125 Z M 20.085938 15.03125 " fill-rule="evenodd"/></svg>
