<svg xmlns="http://www.w3.org/2000/svg" xmlns:xlink="http://www.w3.org/1999/xlink" width="40" zoomAndPan="magnify" viewBox="0 0 30 30.000001" height="40" preserveAspectRatio="xMidYMid meet" version="1.0"><defs><clipPath id="267cfab396"><path d="M 6.289062 5.804688 L 23.710938 5.804688 L 23.710938 23.226562 L 6.289062 23.226562 Z M 6.289062 5.804688 " clip-rule="nonzero"/></clipPath></defs><g clip-path="url(#267cfab396)"><path fill="#004aac" d="M 23.671875 15.816406 C 23.699219 15.792969 23.710938 15.757812 23.710938 15.722656 L 23.710938 13.464844 C 23.710938 13.429688 23.699219 13.394531 23.671875 13.371094 C 23.648438 13.347656 23.613281 13.332031 23.578125 13.332031 L 17.695312 13.351562 C 18.367188 12.621094 18.5 12.472656 18.535156 12.4375 L 21.875 9.421875 C 21.929688 9.375 21.9375 9.289062 21.886719 9.234375 L 20.402344 7.539062 C 20.355469 7.484375 20.269531 7.476562 20.214844 7.523438 L 16.765625 10.453125 C 16.746094 10.472656 16.722656 10.492188 16.703125 10.511719 C 16.695312 10.515625 16.535156 10.683594 16.253906 10.96875 L 16.1875 5.9375 C 16.1875 5.867188 16.125 5.808594 16.054688 5.808594 L 13.796875 5.808594 C 13.722656 5.808594 13.664062 5.867188 13.664062 5.9375 L 13.589844 11.429688 L 10.105469 7.492188 C 10.078125 7.464844 10.046875 7.449219 10.011719 7.449219 C 9.976562 7.445312 9.941406 7.457031 9.914062 7.484375 C 9.914062 7.484375 7.859375 9.359375 7.847656 9.375 C 7.816406 9.398438 7.800781 9.4375 7.804688 9.476562 C 7.804688 9.511719 7.820312 9.546875 7.84375 9.570312 C 7.917969 9.640625 9.675781 11.507812 11.375 13.308594 L 11.433594 13.371094 L 6.425781 13.386719 C 6.351562 13.386719 6.289062 13.445312 6.289062 13.519531 L 6.289062 15.667969 C 6.289062 15.742188 6.351562 15.800781 6.425781 15.800781 L 11.492188 15.816406 L 9.566406 17.777344 C 8.542969 18.820312 7.828125 19.550781 7.820312 19.558594 C 7.792969 19.585938 7.78125 19.621094 7.78125 19.65625 C 7.78125 19.691406 7.796875 19.722656 7.824219 19.75 L 9.507812 21.355469 C 9.65625 21.496094 9.742188 21.578125 9.796875 21.625 C 9.800781 21.636719 9.808594 21.644531 9.820312 21.65625 C 9.839844 21.675781 9.863281 21.683594 9.890625 21.691406 C 9.890625 21.691406 9.894531 21.691406 9.894531 21.691406 C 9.933594 21.695312 9.976562 21.683594 10.007812 21.652344 C 10.011719 21.648438 10.015625 21.644531 10.019531 21.640625 C 10.097656 21.550781 11.257812 20.296875 12.597656 18.851562 L 13.503906 17.875 L 13.433594 23.09375 C 13.433594 23.128906 13.449219 23.164062 13.472656 23.1875 C 13.5 23.214844 13.53125 23.226562 13.570312 23.226562 L 16.28125 23.226562 C 16.316406 23.226562 16.351562 23.214844 16.375 23.1875 C 16.402344 23.164062 16.414062 23.128906 16.414062 23.09375 L 16.351562 18.445312 L 20.148438 21.714844 C 20.203125 21.761719 20.289062 21.757812 20.335938 21.703125 L 21.835938 20.015625 C 21.886719 19.960938 21.878906 19.878906 21.828125 19.828125 C 21.828125 19.828125 17.769531 16.105469 17.570312 15.921875 C 17.558594 15.90625 17.53125 15.875 17.496094 15.835938 L 23.578125 15.855469 C 23.617188 15.855469 23.648438 15.84375 23.671875 15.816406 Z M 23.671875 15.816406 " fill-opacity="1" fill-rule="nonzero"/></g></svg>