<svg xmlns="http://www.w3.org/2000/svg" xmlns:xlink="http://www.w3.org/1999/xlink" width="40" zoomAndPan="magnify" viewBox="0 0 30 30.000001" height="40" preserveAspectRatio="xMidYMid meet" version="1.0"><defs><clipPath id="b17ebe76e5"><path d="M 6.398438 5.914062 L 23.820312 5.914062 L 23.820312 23.335938 L 6.398438 23.335938 Z M 6.398438 5.914062 " clip-rule="nonzero"/></clipPath></defs><g clip-path="url(#b17ebe76e5)"><path fill="#004aac" d="M 23.59375 14.511719 C 23.59375 15.078125 23.539062 15.636719 23.429688 16.191406 C 23.320312 16.746094 23.15625 17.28125 22.941406 17.804688 C 22.722656 18.324219 22.460938 18.820312 22.144531 19.289062 C 21.832031 19.757812 21.476562 20.195312 21.078125 20.59375 C 20.675781 20.992188 20.242188 21.347656 19.773438 21.660156 C 19.304688 21.976562 18.808594 22.242188 18.289062 22.457031 C 17.765625 22.671875 17.226562 22.835938 16.675781 22.945312 C 16.121094 23.054688 15.5625 23.109375 14.996094 23.109375 C 14.433594 23.109375 13.875 23.054688 13.320312 22.945312 C 12.765625 22.835938 12.226562 22.671875 11.707031 22.457031 C 11.183594 22.242188 10.691406 21.976562 10.21875 21.660156 C 9.75 21.347656 9.316406 20.992188 8.917969 20.59375 C 8.519531 20.195312 8.160156 19.757812 7.847656 19.289062 C 7.535156 18.820312 7.269531 18.324219 7.054688 17.804688 C 6.835938 17.28125 6.675781 16.746094 6.5625 16.191406 C 6.453125 15.636719 6.398438 15.078125 6.398438 14.511719 C 6.398438 13.949219 6.453125 13.390625 6.5625 12.835938 C 6.675781 12.28125 6.835938 11.746094 7.054688 11.222656 C 7.269531 10.703125 7.535156 10.207031 7.847656 9.738281 C 8.160156 9.265625 8.519531 8.832031 8.917969 8.433594 C 9.316406 8.035156 9.75 7.679688 10.21875 7.363281 C 10.691406 7.050781 11.183594 6.785156 11.707031 6.570312 C 12.226562 6.355469 12.765625 6.191406 13.320312 6.082031 C 13.875 5.96875 14.433594 5.914062 14.996094 5.914062 C 15.5625 5.914062 16.121094 5.96875 16.675781 6.082031 C 17.226562 6.191406 17.765625 6.355469 18.289062 6.570312 C 18.808594 6.785156 19.304688 7.050781 19.773438 7.363281 C 20.242188 7.679688 20.675781 8.035156 21.078125 8.433594 C 21.476562 8.832031 21.832031 9.265625 22.144531 9.738281 C 22.460938 10.207031 22.722656 10.703125 22.941406 11.222656 C 23.15625 11.746094 23.320312 12.28125 23.429688 12.835938 C 23.539062 13.390625 23.59375 13.949219 23.59375 14.511719 Z M 23.59375 14.511719 " fill-opacity="1" fill-rule="nonzero"/></g><path fill="#25f4ee" d="M 13.855469 13.285156 L 13.855469 12.816406 C 13.699219 12.796875 13.539062 12.78125 13.378906 12.78125 C 11.425781 12.78125 9.839844 14.371094 9.839844 16.324219 C 9.839844 17.519531 10.4375 18.582031 11.351562 19.222656 C 10.761719 18.589844 10.410156 17.742188 10.410156 16.8125 C 10.410156 14.886719 11.941406 13.328125 13.855469 13.285156 Z M 13.855469 13.285156 " fill-opacity="1" fill-rule="nonzero"/><path fill="#25f4ee" d="M 13.9375 18.4375 C 14.808594 18.4375 15.53125 17.734375 15.5625 16.871094 L 15.570312 9.175781 L 16.964844 9.175781 C 16.964844 9.175781 16.964844 9.164062 16.964844 9.164062 C 16.933594 9.003906 16.917969 8.84375 16.917969 8.675781 L 14.996094 8.675781 L 14.992188 16.382812 C 14.960938 17.246094 14.25 17.941406 13.378906 17.941406 C 13.109375 17.941406 12.851562 17.871094 12.628906 17.753906 C 12.921875 18.160156 13.398438 18.4375 13.941406 18.4375 Z M 13.9375 18.4375 " fill-opacity="1" fill-rule="nonzero"/><path fill="#25f4ee" d="M 19.59375 11.800781 L 19.59375 11.351562 C 19.058594 11.351562 18.558594 11.191406 18.136719 10.917969 C 18.511719 11.34375 19.019531 11.679688 19.59375 11.800781 Z M 19.59375 11.800781 " fill-opacity="1" fill-rule="nonzero"/><path fill="#fe2c55" d="M 18.136719 10.917969 C 17.730469 10.445312 17.480469 9.835938 17.480469 9.164062 L 16.957031 9.164062 C 17.09375 9.894531 17.535156 10.523438 18.136719 10.917969 Z M 18.136719 10.917969 " fill-opacity="1" fill-rule="nonzero"/><path fill="#fe2c55" d="M 13.378906 14.691406 C 12.488281 14.691406 11.75 15.429688 11.75 16.324219 C 11.75 16.941406 12.113281 17.484375 12.628906 17.753906 C 12.4375 17.488281 12.320312 17.164062 12.320312 16.8125 C 12.320312 15.917969 13.046875 15.195312 13.9375 15.195312 C 14.105469 15.195312 14.265625 15.222656 14.414062 15.269531 L 14.414062 13.304688 C 14.257812 13.285156 14.101562 13.269531 13.9375 13.269531 C 13.910156 13.269531 13.882812 13.273438 13.855469 13.273438 L 13.847656 13.273438 C 13.847656 13.273438 13.84375 14.757812 13.84375 14.757812 C 13.691406 14.710938 13.546875 14.691406 13.378906 14.691406 Z M 13.378906 14.691406 " fill-opacity="1" fill-rule="nonzero"/><path fill="#fe2c55" d="M 19.59375 11.777344 L 19.585938 11.777344 L 19.585938 13.261719 C 18.589844 13.261719 17.660156 12.933594 16.90625 12.394531 L 16.90625 16.324219 C 16.90625 18.273438 15.332031 19.851562 13.378906 19.851562 C 12.625 19.851562 11.925781 19.625 11.347656 19.21875 C 11.996094 19.914062 12.917969 20.351562 13.9375 20.351562 C 15.890625 20.351562 17.480469 18.761719 17.480469 16.808594 L 17.480469 12.902344 C 18.234375 13.441406 19.15625 13.761719 20.15625 13.761719 L 20.15625 11.839844 C 19.960938 11.839844 19.773438 11.816406 19.59375 11.777344 Z M 19.59375 11.777344 " fill-opacity="1" fill-rule="nonzero"/><path fill="#ffffff" d="M 16.917969 16.324219 L 16.917969 12.414062 C 17.671875 12.953125 18.597656 13.273438 19.59375 13.273438 L 19.59375 11.777344 C 19.019531 11.65625 18.511719 11.347656 18.136719 10.917969 C 17.535156 10.523438 17.097656 9.894531 16.964844 9.164062 L 15.554688 9.164062 L 15.550781 16.871094 C 15.519531 17.734375 14.808594 18.425781 13.9375 18.425781 C 13.398438 18.425781 12.921875 18.160156 12.628906 17.753906 C 12.113281 17.480469 11.761719 16.941406 11.761719 16.320312 C 11.761719 15.429688 12.484375 14.703125 13.378906 14.703125 C 13.542969 14.703125 13.703125 14.730469 13.855469 14.78125 L 13.855469 13.273438 C 11.941406 13.316406 10.398438 14.886719 10.398438 16.808594 C 10.398438 17.742188 10.761719 18.589844 11.347656 19.222656 C 11.921875 19.625 12.621094 19.863281 13.378906 19.863281 C 15.328125 19.863281 16.917969 18.273438 16.917969 16.324219 Z M 16.917969 16.324219 " fill-opacity="1" fill-rule="nonzero"/></svg>