<svg xmlns="http://www.w3.org/2000/svg" xmlns:xlink="http://www.w3.org/1999/xlink" width="40" zoomAndPan="magnify" viewBox="0 0 30 30.000001" height="40" preserveAspectRatio="xMidYMid meet" version="1.0"><defs><clipPath id="e18e7a43cf"><path d="M 0.289062 0.324219 L 9.546875 0.324219 L 9.546875 9.003906 L 0.289062 9.003906 Z M 0.289062 0.324219 " clip-rule="nonzero"/></clipPath><clipPath id="0265f0555e"><path d="M 0.289062 9.003906 C 0.289062 6.71875 1.273438 4.484375 2.992188 2.867188 C 4.710938 1.25 7.089844 0.324219 9.519531 0.324219 L 9.519531 4.753906 C 8.328125 4.753906 7.164062 5.207031 6.324219 6 C 5.480469 6.789062 5 7.886719 5 9.003906 Z M 0.289062 9.003906 " clip-rule="nonzero"/></clipPath><clipPath id="abd040ff14"><path d="M 0.289062 0.324219 L 9.546875 0.324219 L 9.546875 9.003906 L 0.289062 9.003906 Z M 0.289062 0.324219 " clip-rule="nonzero"/></clipPath><clipPath id="e39f245c4b"><path d="M 0.289062 9.003906 C 0.289062 6.71875 1.273438 4.484375 2.992188 2.867188 C 4.710938 1.25 7.089844 0.324219 9.519531 0.324219 L 9.519531 4.753906 C 8.328125 4.753906 7.164062 5.207031 6.324219 6 C 5.480469 6.789062 5 7.886719 5 9.003906 Z M 0.289062 9.003906 " clip-rule="nonzero"/></clipPath><clipPath id="b2468bea80"><rect x="0" width="10" y="0" height="10"/></clipPath><clipPath id="be6577a362"><path d="M 9.496094 9 L 17.707031 9 L 17.707031 16.703125 L 9.496094 16.703125 Z M 9.496094 9 " clip-rule="nonzero"/></clipPath><clipPath id="ef89ad9c66"><path d="M 17.707031 9 C 17.707031 11.027344 16.835938 13.011719 15.308594 14.445312 C 13.785156 15.882812 11.675781 16.703125 9.519531 16.703125 L 9.519531 12.773438 C 10.574219 12.773438 11.609375 12.371094 12.355469 11.667969 C 13.101562 10.964844 13.53125 9.996094 13.53125 9 Z M 17.707031 9 " clip-rule="nonzero"/></clipPath><clipPath id="8d5ce0bbc6"><path d="M 0.496094 0 L 8.707031 0 L 8.707031 7.703125 L 0.496094 7.703125 Z M 0.496094 0 " clip-rule="nonzero"/></clipPath><clipPath id="666e94f091"><path d="M 8.707031 0 C 8.707031 2.027344 7.835938 4.011719 6.308594 5.445312 C 4.785156 6.882812 2.675781 7.703125 0.519531 7.703125 L 0.519531 3.773438 C 1.574219 3.773438 2.609375 3.371094 3.355469 2.667969 C 4.101562 1.964844 4.53125 0.996094 4.53125 0 Z M 8.707031 0 " clip-rule="nonzero"/></clipPath><clipPath id="fbea4c92c0"><rect x="0" width="9" y="0" height="8"/></clipPath><clipPath id="c3f6512d4d"><path d="M 4.90625 6.234375 L 15.546875 6.234375 L 15.546875 9.78125 L 4.90625 9.78125 Z M 4.90625 6.234375 " clip-rule="nonzero"/></clipPath><clipPath id="118a2516c4"><rect x="0" width="18" y="0" height="17"/></clipPath></defs><g transform="matrix(1, 0, 0, 1, 6, 6)"><g clip-path="url(#118a2516c4)"><g clip-path="url(#e18e7a43cf)"><g clip-path="url(#0265f0555e)"><g transform="matrix(1, 0, 0, 1, 0, 0.000000000000005329)"><g clip-path="url(#b2468bea80)"><g clip-path="url(#abd040ff14)"><g clip-path="url(#e39f245c4b)"><path fill="#fefeff" d="M 0.289062 0.324219 L 9.511719 0.324219 L 9.511719 9.003906 L 0.289062 9.003906 Z M 0.289062 0.324219 " fill-opacity="1" fill-rule="nonzero"/></g></g></g></g></g></g><g clip-path="url(#be6577a362)"><g clip-path="url(#ef89ad9c66)"><g transform="matrix(1, 0, 0, 1, 9, 9)"><g clip-path="url(#fbea4c92c0)"><g clip-path="url(#8d5ce0bbc6)"><g clip-path="url(#666e94f091)"><path fill="#fefeff" d="M 8.707031 7.703125 L 0.527344 7.703125 L 0.527344 0 L 8.707031 0 Z M 8.707031 7.703125 " fill-opacity="1" fill-rule="nonzero"/></g></g></g></g></g></g><g clip-path="url(#c3f6512d4d)"><path fill="#fefeff" d="M 5.28125 8.152344 C 4.675781 8.828125 3.523438 9.320312 2.941406 10.011719 C 3.050781 9.914062 3.480469 9.894531 3.484375 9.894531 C 4.625 9.753906 5.433594 8.34375 6.105469 7.480469 C 6.945312 6.402344 7.40625 7.1875 7.796875 7.335938 C 8.082031 7.445312 8.734375 8.332031 8.789062 8.332031 C 9.652344 8.316406 10.128906 7.160156 10.449219 7.582031 C 11.25 8.644531 11.519531 8.507812 12.074219 9.105469 C 12.351562 9.402344 12.996094 8.222656 13.511719 9.050781 C 13.765625 9.457031 14.21875 9.574219 14.558594 9.855469 C 15.117188 10.320312 15.511719 10.089844 15.234375 9.933594 C 14.238281 9.359375 14.386719 9.542969 13.484375 8.675781 C 12.433594 7.667969 12.914062 9.828125 11.457031 8.140625 C 9.84375 6.273438 10.121094 7.816406 9.09375 7.984375 C 8.675781 8.054688 7.917969 6.234375 6.929688 6.578125 C 6.882812 6.59375 5.394531 8.027344 5.28125 8.152344 " fill-opacity="1" fill-rule="evenodd"/></g></g></g></svg>