<svg xmlns="http://www.w3.org/2000/svg" xmlns:xlink="http://www.w3.org/1999/xlink" width="40" zoomAndPan="magnify" viewBox="0 0 30 30.000001" height="40" preserveAspectRatio="xMidYMid meet" version="1.0"><defs><clipPath id="e319604cdd"><path d="M 0.484375 0.832031 L 29.515625 0.832031 L 29.515625 28.183594 L 0.484375 28.183594 Z M 0.484375 0.832031 " clip-rule="nonzero"/></clipPath><clipPath id="d183953cac"><path d="M 29.5625 0.832031 C 29.5625 8.035156 26.457031 15.078125 21.042969 20.171875 C 15.625 25.265625 8.136719 28.183594 0.476562 28.183594 L 0.476562 14.226562 C 4.226562 14.226562 7.894531 12.800781 10.550781 10.304688 C 13.203125 7.808594 14.722656 4.359375 14.722656 0.832031 Z M 29.5625 0.832031 " clip-rule="nonzero"/></clipPath><clipPath id="8c47f76b2b"><path d="M 0.484375 0.832031 L 29.515625 0.832031 L 29.515625 28.183594 L 0.484375 28.183594 Z M 0.484375 0.832031 " clip-rule="nonzero"/></clipPath><clipPath id="07f6b8c526"><path d="M 29.5625 0.832031 C 29.5625 8.035156 26.457031 15.078125 21.042969 20.171875 C 15.625 25.265625 8.136719 28.183594 0.476562 28.183594 L 0.476562 14.226562 C 4.226562 14.226562 7.894531 12.800781 10.550781 10.304688 C 13.203125 7.808594 14.722656 4.359375 14.722656 0.832031 Z M 29.5625 0.832031 " clip-rule="nonzero"/></clipPath><clipPath id="44d3633fa8"><rect x="0" width="30" y="0" height="29"/></clipPath></defs><g clip-path="url(#e319604cdd)"><g clip-path="url(#d183953cac)"><g transform="matrix(1, 0, 0, 1, 0.000000000000000056, 0.000000000000005773)"><g clip-path="url(#44d3633fa8)"><g clip-path="url(#8c47f76b2b)"><g clip-path="url(#07f6b8c526)"><path fill="#004aad" d="M 29.5625 28.183594 L 0.5 28.183594 L 0.5 0.832031 L 29.5625 0.832031 Z M 29.5625 28.183594 " fill-opacity="1" fill-rule="nonzero"/></g></g></g></g></g></g></svg>