<svg xmlns="http://www.w3.org/2000/svg" xmlns:xlink="http://www.w3.org/1999/xlink" width="40" zoomAndPan="magnify" viewBox="0 0 30 30.000001" height="40" preserveAspectRatio="xMidYMid meet" version="1.0"><defs><clipPath id="0e0f64b9b2"><path d="M 0.484375 0.839844 L 29.515625 0.839844 L 29.515625 28.191406 L 0.484375 28.191406 Z M 0.484375 0.839844 " clip-rule="nonzero"/></clipPath><clipPath id="86d7b3275b"><path d="M 0.484375 28.191406 C 0.484375 20.988281 3.585938 13.945312 9.003906 8.851562 C 14.417969 3.757812 21.910156 0.839844 29.570312 0.839844 L 29.570312 14.792969 C 25.816406 14.792969 22.148438 16.222656 19.496094 18.71875 C 16.84375 21.214844 15.324219 24.664062 15.324219 28.191406 Z M 0.484375 28.191406 " clip-rule="nonzero"/></clipPath><clipPath id="ec8ecae595"><path d="M 0.484375 0.839844 L 29.515625 0.839844 L 29.515625 28.191406 L 0.484375 28.191406 Z M 0.484375 0.839844 " clip-rule="nonzero"/></clipPath><clipPath id="2bb7e34cac"><path d="M 0.484375 28.191406 C 0.484375 20.988281 3.585938 13.945312 9.003906 8.851562 C 14.417969 3.757812 21.910156 0.839844 29.570312 0.839844 L 29.570312 14.792969 C 25.816406 14.792969 22.148438 16.222656 19.496094 18.71875 C 16.84375 21.214844 15.324219 24.664062 15.324219 28.191406 Z M 0.484375 28.191406 " clip-rule="nonzero"/></clipPath><clipPath id="5e6e538709"><rect x="0" width="30" y="0" height="29"/></clipPath></defs><g clip-path="url(#0e0f64b9b2)"><g clip-path="url(#86d7b3275b)"><g transform="matrix(1, 0, 0, 1, 0.000000000000000056, 0.000000000000005773)"><g clip-path="url(#5e6e538709)"><g clip-path="url(#ec8ecae595)"><g clip-path="url(#2bb7e34cac)"><path fill="#004aad" d="M 0.484375 0.839844 L 29.546875 0.839844 L 29.546875 28.191406 L 0.484375 28.191406 Z M 0.484375 0.839844 " fill-opacity="1" fill-rule="nonzero"/></g></g></g></g></g></g></svg>