<svg xmlns="http://www.w3.org/2000/svg" xmlns:xlink="http://www.w3.org/1999/xlink" width="500" zoomAndPan="magnify" viewBox="0 0 375 374.999991" height="500" preserveAspectRatio="xMidYMid meet" version="1.0"><defs><g/><clipPath id="32603f0404"><path d="M 0.875 0.230469 L 185 0.230469 L 185 173.242188 L 0.875 173.242188 Z M 0.875 0.230469 " clip-rule="nonzero"/></clipPath><clipPath id="376d9b27ed"><path d="M 0.875 173.242188 C 0.875 127.675781 20.5 83.125 54.761719 50.902344 C 89.027344 18.683594 136.40625 0.230469 184.859375 0.230469 L 184.859375 88.496094 C 161.125 88.496094 137.917969 97.535156 121.132812 113.316406 C 104.351562 129.097656 94.738281 150.921875 94.738281 173.242188 Z M 0.875 173.242188 " clip-rule="nonzero"/></clipPath><clipPath id="bb062043b5"><path d="M 0.875 0.230469 L 185 0.230469 L 185 173.242188 L 0.875 173.242188 Z M 0.875 0.230469 " clip-rule="nonzero"/></clipPath><clipPath id="c0c14ad8a7"><path d="M 0.875 173.242188 C 0.875 127.675781 20.5 83.125 54.761719 50.902344 C 89.027344 18.683594 136.40625 0.230469 184.859375 0.230469 L 184.859375 88.496094 C 161.125 88.496094 137.917969 97.535156 121.132812 113.316406 C 104.351562 129.097656 94.738281 150.921875 94.738281 173.242188 Z M 0.875 173.242188 " clip-rule="nonzero"/></clipPath><clipPath id="54904d8d86"><rect x="0" width="185" y="0" height="174"/></clipPath><clipPath id="318b15b775"><path d="M 184.382812 173.234375 L 348.105469 173.234375 L 348.105469 326.761719 L 184.382812 326.761719 Z M 184.382812 173.234375 " clip-rule="nonzero"/></clipPath><clipPath id="80c5b5bca6"><path d="M 348.105469 173.234375 C 348.105469 213.667969 330.691406 253.203125 300.285156 281.792969 C 269.882812 310.382812 227.839844 326.761719 184.839844 326.761719 L 184.839844 248.4375 C 205.902344 248.4375 226.496094 240.414062 241.390625 226.410156 C 256.285156 212.40625 264.8125 193.039062 264.8125 173.234375 Z M 348.105469 173.234375 " clip-rule="nonzero"/></clipPath><clipPath id="3541fbacd2"><path d="M 0.761719 0.234375 L 164.105469 0.234375 L 164.105469 153.761719 L 0.761719 153.761719 Z M 0.761719 0.234375 " clip-rule="nonzero"/></clipPath><clipPath id="5122c3bfa2"><path d="M 164.105469 0.234375 C 164.105469 40.667969 146.691406 80.203125 116.285156 108.792969 C 85.882812 137.382812 43.839844 153.761719 0.839844 153.761719 L 0.839844 75.4375 C 21.902344 75.4375 42.496094 67.414062 57.390625 53.410156 C 72.285156 39.40625 80.8125 20.039062 80.8125 0.234375 Z M 164.105469 0.234375 " clip-rule="nonzero"/></clipPath><clipPath id="83906900ec"><rect x="0" width="165" y="0" height="154"/></clipPath><clipPath id="b7dcd48ce0"><path d="M 92.867188 124 L 301 124 L 301 186.90625 L 92.867188 186.90625 Z M 92.867188 124 " clip-rule="nonzero"/></clipPath><clipPath id="3f1c1305cf"><rect x="0" width="94" y="0" height="71"/></clipPath><clipPath id="1f70141799"><rect x="0" width="349" y="0" height="327"/></clipPath></defs><g transform="matrix(1, 0, 0, 1, 13, 24)"><g clip-path="url(#1f70141799)"><g clip-path="url(#32603f0404)"><g clip-path="url(#376d9b27ed)"><g><g clip-path="url(#54904d8d86)"><g clip-path="url(#bb062043b5)"><g clip-path="url(#c0c14ad8a7)"><path fill="#fefeff" d="M 0.875 0.230469 L 184.703125 0.230469 L 184.703125 173.242188 L 0.875 173.242188 Z M 0.875 0.230469 " fill-opacity="1" fill-rule="nonzero"/></g></g></g></g></g></g><g clip-path="url(#318b15b775)"><g clip-path="url(#80c5b5bca6)"><g transform="matrix(1, 0, 0, 1, 184, 173)"><g clip-path="url(#83906900ec)"><g clip-path="url(#3541fbacd2)"><g clip-path="url(#5122c3bfa2)"><path fill="#fefeff" d="M 164.105469 153.761719 L 0.980469 153.761719 L 0.980469 0.234375 L 164.105469 0.234375 Z M 164.105469 153.761719 " fill-opacity="1" fill-rule="nonzero"/></g></g></g></g></g></g><g clip-path="url(#b7dcd48ce0)"><path fill="#fefeff" d="M 100.363281 156.273438 C 88.277344 169.78125 65.320312 179.589844 53.734375 193.320312 C 55.871094 191.425781 64.4375 190.996094 64.523438 190.980469 C 87.292969 188.199219 103.421875 160.109375 116.800781 142.921875 C 133.546875 121.414062 142.71875 137.03125 150.5625 140.007812 C 156.214844 142.152344 169.242188 159.882812 170.296875 159.882812 C 187.53125 159.585938 197.046875 136.527344 203.421875 144.941406 C 219.398438 166.066406 224.726562 163.351562 235.820312 175.320312 C 241.304688 181.234375 254.167969 157.71875 264.453125 174.160156 C 269.550781 182.3125 278.523438 184.597656 285.347656 190.242188 C 296.46875 199.46875 304.320312 194.925781 298.789062 191.769531 C 278.917969 180.367188 281.90625 183.980469 263.898438 166.730469 C 242.941406 146.65625 252.582031 189.660156 223.523438 156.027344 C 191.359375 118.792969 196.859375 149.578125 176.394531 152.972656 C 168.078125 154.351562 152.953125 118.039062 133.222656 124.90625 C 132.277344 125.238281 102.644531 153.777344 100.398438 156.289062 " fill-opacity="1" fill-rule="evenodd"/></g><g transform="matrix(1, 0, 0, 1, 117, 167)"><g clip-path="url(#3f1c1305cf)"><g fill="#fefeff" fill-opacity="1"><g transform="translate(0.328463, 54.615363)"><g><path d="M 0.703125 0 L 4.625 -40.484375 L 18.328125 -40.484375 L 22.203125 0 L 14.515625 0 L 13.953125 -6.546875 L 9.046875 -6.546875 L 8.578125 0 Z M 9.65625 -13 L 13.34375 -13 L 11.546875 -33.59375 L 11.171875 -33.59375 Z M 9.65625 -13 "/></g></g></g><g fill="#fefeff" fill-opacity="1"><g transform="translate(20.819211, 54.615363)"><g><path d="M 0.609375 0 L 4.953125 -21.484375 L 1.515625 -40.53125 L 9.421875 -40.53125 L 11.546875 -26.578125 L 13.390625 -40.53125 L 21.34375 -40.53125 L 17.859375 -21.484375 L 22.203125 0 L 14 0 L 11.453125 -15.828125 L 8.859375 0 Z M 0.609375 0 "/></g></g></g><g fill="#fefeff" fill-opacity="1"><g transform="translate(41.262845, 54.615363)"><g><path d="M 11.171875 0.375 C 7.835938 0.375 5.359375 -0.566406 3.734375 -2.453125 C 2.117188 -4.335938 1.3125 -7.132812 1.3125 -10.84375 L 1.3125 -40.484375 L 9.1875 -40.484375 L 9.1875 -11.171875 C 9.1875 -9.878906 9.3125 -8.867188 9.5625 -8.140625 C 9.8125 -7.421875 10.347656 -7.0625 11.171875 -7.0625 C 11.984375 -7.0625 12.515625 -7.414062 12.765625 -8.125 C 13.015625 -8.832031 13.140625 -9.847656 13.140625 -11.171875 L 13.140625 -40.484375 L 21.015625 -40.484375 L 21.015625 -10.84375 C 21.015625 -7.132812 20.203125 -4.335938 18.578125 -2.453125 C 16.960938 -0.566406 14.492188 0.375 11.171875 0.375 Z M 11.171875 0.375 "/></g></g></g><g fill="#fefeff" fill-opacity="1"><g transform="translate(61.235397, 54.615363)"><g><path d="M 1.796875 -40.484375 L 12.953125 -40.484375 C 15.847656 -40.484375 18.015625 -39.679688 19.453125 -38.078125 C 20.898438 -36.472656 21.640625 -34.101562 21.671875 -30.96875 L 21.765625 -12.015625 C 21.796875 -8.023438 21.101562 -5.023438 19.6875 -3.015625 C 18.28125 -1.003906 15.941406 0 12.671875 0 L 1.796875 0 Z M 11.359375 -7.15625 C 12.835938 -7.15625 13.578125 -7.878906 13.578125 -9.328125 L 13.578125 -30.203125 C 13.578125 -31.117188 13.503906 -31.800781 13.359375 -32.25 C 13.210938 -32.707031 12.953125 -33.015625 12.578125 -33.171875 C 12.203125 -33.328125 11.625 -33.40625 10.84375 -33.40625 L 9.9375 -33.40625 L 9.9375 -7.15625 Z M 11.359375 -7.15625 "/></g></g></g><g fill="#fefeff" fill-opacity="1"><g transform="translate(82.103018, 54.615363)"><g><path d="M 1.40625 0 L 1.40625 -40.484375 L 9.234375 -40.484375 L 9.234375 0 Z M 1.40625 0 "/></g></g></g></g></g></g></g></svg>