<svg xmlns="http://www.w3.org/2000/svg" xmlns:xlink="http://www.w3.org/1999/xlink" width="500" zoomAndPan="magnify" viewBox="0 0 375 374.999991" height="500" preserveAspectRatio="xMidYMid meet" version="1.0"><defs><g/><clipPath id="70075b3667"><path d="M 198 197.394531 L 364.003906 197.394531 L 364.003906 353.472656 L 198 353.472656 Z M 198 197.394531 " clip-rule="nonzero"/></clipPath><clipPath id="c579e75a20"><path d="M 364.003906 197.394531 C 364.003906 238.5 346.300781 278.695312 315.390625 307.757812 C 284.480469 336.824219 241.738281 353.472656 198.027344 353.472656 L 198.027344 273.847656 C 219.4375 273.847656 240.375 265.691406 255.515625 251.457031 C 270.65625 237.21875 279.328125 217.53125 279.328125 197.394531 Z M 364.003906 197.394531 " clip-rule="nonzero"/></clipPath><clipPath id="32825001fd"><path d="M 0 0.394531 L 166.003906 0.394531 L 166.003906 156.472656 L 0 156.472656 Z M 0 0.394531 " clip-rule="nonzero"/></clipPath><clipPath id="03742e587f"><path d="M 166.003906 0.394531 C 166.003906 41.5 148.300781 81.695312 117.390625 110.757812 C 86.480469 139.824219 43.738281 156.472656 0.0273438 156.472656 L 0.0273438 76.847656 C 21.4375 76.847656 42.375 68.691406 57.515625 54.457031 C 72.65625 40.21875 81.328125 20.53125 81.328125 0.394531 Z M 166.003906 0.394531 " clip-rule="nonzero"/></clipPath><clipPath id="dbeac8eb6e"><rect x="0" width="167" y="0" height="157"/></clipPath><clipPath id="df72200275"><path d="M 104.511719 147 L 316 147 L 316 211 L 104.511719 211 Z M 104.511719 147 " clip-rule="nonzero"/></clipPath><clipPath id="8d54746540"><rect x="0" width="94" y="0" height="71"/></clipPath><clipPath id="4c29d8b2d8"><path d="M 0.359375 4 L 7 4 L 7 16 L 0.359375 16 Z M 0.359375 4 " clip-rule="nonzero"/></clipPath><clipPath id="77a0e44f6d"><path d="M 0.359375 20 L 7 20 L 7 32 L 0.359375 32 Z M 0.359375 20 " clip-rule="nonzero"/></clipPath><clipPath id="a21e668b80"><path d="M 0.359375 36 L 7 36 L 7 47 L 0.359375 47 Z M 0.359375 36 " clip-rule="nonzero"/></clipPath><clipPath id="1d276bdbf1"><path d="M 0.359375 52 L 7 52 L 7 63 L 0.359375 63 Z M 0.359375 52 " clip-rule="nonzero"/></clipPath><clipPath id="e571714c4b"><rect x="0" width="65" y="0" height="68"/></clipPath><clipPath id="97873d74ed"><path d="M 10.988281 21.515625 L 198.558594 21.515625 L 198.558594 197.402344 L 10.988281 197.402344 Z M 10.988281 21.515625 " clip-rule="nonzero"/></clipPath><clipPath id="0b7597293b"><path d="M 10.988281 197.402344 C 10.988281 151.082031 30.941406 105.785156 65.773438 73.03125 C 100.605469 40.277344 148.773438 21.515625 198.03125 21.515625 L 198.03125 111.246094 C 173.902344 111.246094 150.308594 120.4375 133.246094 136.480469 C 116.183594 152.527344 106.414062 174.714844 106.414062 197.402344 Z M 10.988281 197.402344 " clip-rule="nonzero"/></clipPath><clipPath id="fc7f99537a"><path d="M 0.988281 0.515625 L 188 0.515625 L 188 176.402344 L 0.988281 176.402344 Z M 0.988281 0.515625 " clip-rule="nonzero"/></clipPath><clipPath id="21d41d17b2"><path d="M 0.988281 176.402344 C 0.988281 130.082031 20.941406 84.785156 55.773438 52.03125 C 90.605469 19.277344 138.773438 0.515625 188.03125 0.515625 L 188.03125 90.246094 C 163.902344 90.246094 140.308594 99.4375 123.246094 115.480469 C 106.183594 131.527344 96.414062 153.714844 96.414062 176.402344 Z M 0.988281 176.402344 " clip-rule="nonzero"/></clipPath><clipPath id="126557172e"><rect x="0" width="189" y="0" height="177"/></clipPath></defs><g clip-path="url(#70075b3667)"><g clip-path="url(#c579e75a20)"><g transform="matrix(1, 0, 0, 1, 198, 197)"><g clip-path="url(#dbeac8eb6e)"><g clip-path="url(#32825001fd)"><g clip-path="url(#03742e587f)"><path fill="#fefeff" d="M 166.003906 156.472656 L 0.167969 156.472656 L 0.167969 0.394531 L 166.003906 0.394531 Z M 166.003906 156.472656 " fill-opacity="1" fill-rule="nonzero"/></g></g></g></g></g></g><g clip-path="url(#df72200275)"><path fill="#fefeff" d="M 112.132812 180.15625 C 99.84375 193.890625 76.503906 203.863281 64.730469 217.820312 C 66.898438 215.894531 75.609375 215.457031 75.695312 215.441406 C 98.84375 212.613281 115.242188 184.054688 128.847656 166.582031 C 145.871094 144.714844 155.195312 160.59375 163.167969 163.617188 C 168.914062 165.800781 182.164062 183.824219 183.234375 183.824219 C 200.757812 183.523438 210.429688 160.078125 216.910156 168.632812 C 233.152344 190.113281 238.570312 187.351562 249.851562 199.519531 C 255.425781 205.53125 268.5 181.625 278.960938 198.339844 C 284.144531 206.628906 293.265625 208.949219 300.203125 214.691406 C 311.507812 224.074219 319.492188 219.453125 313.871094 216.246094 C 293.664062 204.652344 296.707031 208.324219 278.398438 190.785156 C 257.089844 170.378906 266.890625 214.101562 237.347656 179.90625 C 204.648438 142.050781 210.238281 173.347656 189.429688 176.796875 C 180.976562 178.203125 165.601562 141.285156 145.539062 148.265625 C 144.582031 148.605469 114.453125 177.617188 112.167969 180.171875 " fill-opacity="1" fill-rule="evenodd"/></g><g transform="matrix(1, 0, 0, 1, 129, 192)"><g clip-path="url(#8d54746540)"><g fill="#fefeff" fill-opacity="1"><g transform="translate(0.378101, 54.469919)"><g><path d="M 0.71875 0 L 4.6875 -41.15625 L 18.640625 -41.15625 L 22.5625 0 L 14.75 0 L 14.1875 -6.65625 L 9.203125 -6.65625 L 8.71875 0 Z M 9.828125 -13.21875 L 13.5625 -13.21875 L 11.734375 -34.15625 L 11.359375 -34.15625 Z M 9.828125 -13.21875 "/></g></g></g><g fill="#fefeff" fill-opacity="1"><g transform="translate(21.217677, 54.469919)"><g><path d="M 0.625 0 L 5.03125 -21.84375 L 1.53125 -41.203125 L 9.578125 -41.203125 L 11.734375 -27.015625 L 13.609375 -41.203125 L 21.703125 -41.203125 L 18.15625 -21.84375 L 22.5625 0 L 14.234375 0 L 11.640625 -16.09375 L 9 0 Z M 0.625 0 "/></g></g></g><g fill="#fefeff" fill-opacity="1"><g transform="translate(42.009345, 54.469919)"><g><path d="M 11.359375 0.390625 C 7.972656 0.390625 5.457031 -0.566406 3.8125 -2.484375 C 2.164062 -4.398438 1.34375 -7.242188 1.34375 -11.015625 L 1.34375 -41.15625 L 9.34375 -41.15625 L 9.34375 -11.359375 C 9.34375 -10.046875 9.46875 -9.019531 9.71875 -8.28125 C 9.976562 -7.550781 10.523438 -7.1875 11.359375 -7.1875 C 12.179688 -7.1875 12.71875 -7.546875 12.96875 -8.265625 C 13.226562 -8.984375 13.359375 -10.015625 13.359375 -11.359375 L 13.359375 -41.15625 L 21.359375 -41.15625 L 21.359375 -11.015625 C 21.359375 -7.242188 20.535156 -4.398438 18.890625 -2.484375 C 17.253906 -0.566406 14.742188 0.390625 11.359375 0.390625 Z M 11.359375 0.390625 "/></g></g></g><g fill="#fefeff" fill-opacity="1"><g transform="translate(62.321928, 54.469919)"><g><path d="M 1.828125 -41.15625 L 13.171875 -41.15625 C 16.109375 -41.15625 18.3125 -40.335938 19.78125 -38.703125 C 21.25 -37.078125 22 -34.664062 22.03125 -31.46875 L 22.125 -12.21875 C 22.164062 -8.15625 21.46875 -5.101562 20.03125 -3.0625 C 18.59375 -1.019531 16.210938 0 12.890625 0 L 1.828125 0 Z M 11.546875 -7.28125 C 13.046875 -7.28125 13.796875 -8.015625 13.796875 -9.484375 L 13.796875 -30.703125 C 13.796875 -31.628906 13.722656 -32.320312 13.578125 -32.78125 C 13.429688 -33.25 13.164062 -33.5625 12.78125 -33.71875 C 12.40625 -33.882812 11.816406 -33.96875 11.015625 -33.96875 L 10.109375 -33.96875 L 10.109375 -7.28125 Z M 11.546875 -7.28125 "/></g></g></g><g fill="#fefeff" fill-opacity="1"><g transform="translate(83.544775, 54.469919)"><g><path d="M 1.4375 0 L 1.4375 -41.15625 L 9.390625 -41.15625 L 9.390625 0 Z M 1.4375 0 "/></g></g></g></g></g><g transform="matrix(1, 0, 0, 1, 129, 280)"><g clip-path="url(#e571714c4b)"><g clip-path="url(#4c29d8b2d8)"><g fill="#fefeff" fill-opacity="1"><g transform="translate(0.378101, 15.156417)"><g><path d="M 0.1875 0 L 1.21875 -10.75 L 4.875 -10.75 L 5.890625 0 L 3.859375 0 L 3.703125 -1.734375 L 2.40625 -1.734375 L 2.28125 0 Z M 2.5625 -3.453125 L 3.546875 -3.453125 L 3.0625 -8.921875 L 2.96875 -8.921875 Z M 2.5625 -3.453125 "/></g></g></g></g><g fill="#fefeff" fill-opacity="1"><g transform="translate(7.069159, 15.156417)"><g><path d="M 3.03125 0.09375 C 2.050781 0.09375 1.34375 -0.144531 0.90625 -0.625 C 0.476562 -1.113281 0.265625 -1.894531 0.265625 -2.96875 L 0.265625 -4.015625 L 2.375 -4.015625 L 2.375 -2.671875 C 2.375 -2.140625 2.546875 -1.875 2.890625 -1.875 C 3.078125 -1.875 3.207031 -1.929688 3.28125 -2.046875 C 3.363281 -2.160156 3.40625 -2.347656 3.40625 -2.609375 C 3.40625 -2.960938 3.363281 -3.253906 3.28125 -3.484375 C 3.195312 -3.710938 3.085938 -3.90625 2.953125 -4.0625 C 2.828125 -4.21875 2.597656 -4.457031 2.265625 -4.78125 L 1.34375 -5.703125 C 0.625 -6.410156 0.265625 -7.1875 0.265625 -8.03125 C 0.265625 -8.945312 0.472656 -9.644531 0.890625 -10.125 C 1.316406 -10.601562 1.929688 -10.84375 2.734375 -10.84375 C 3.703125 -10.84375 4.398438 -10.585938 4.828125 -10.078125 C 5.253906 -9.566406 5.46875 -8.765625 5.46875 -7.671875 L 3.28125 -7.671875 L 3.265625 -8.40625 C 3.265625 -8.550781 3.222656 -8.664062 3.140625 -8.75 C 3.066406 -8.832031 2.957031 -8.875 2.8125 -8.875 C 2.644531 -8.875 2.519531 -8.828125 2.4375 -8.734375 C 2.351562 -8.640625 2.3125 -8.515625 2.3125 -8.359375 C 2.3125 -8.003906 2.515625 -7.640625 2.921875 -7.265625 L 4.171875 -6.0625 C 4.460938 -5.78125 4.703125 -5.507812 4.890625 -5.25 C 5.085938 -5 5.242188 -4.703125 5.359375 -4.359375 C 5.472656 -4.015625 5.53125 -3.601562 5.53125 -3.125 C 5.53125 -2.070312 5.335938 -1.269531 4.953125 -0.71875 C 4.566406 -0.175781 3.925781 0.09375 3.03125 0.09375 Z M 3.03125 0.09375 "/></g></g></g><g fill="#fefeff" fill-opacity="1"><g transform="translate(13.46009, 15.156417)"><g><path d="M 3.046875 0.09375 C 2.171875 0.09375 1.507812 -0.164062 1.0625 -0.6875 C 0.613281 -1.21875 0.390625 -1.960938 0.390625 -2.921875 L 0.390625 -8.046875 C 0.390625 -8.972656 0.613281 -9.671875 1.0625 -10.140625 C 1.507812 -10.609375 2.171875 -10.84375 3.046875 -10.84375 C 3.910156 -10.84375 4.566406 -10.609375 5.015625 -10.140625 C 5.460938 -9.671875 5.6875 -8.972656 5.6875 -8.046875 L 5.6875 -2.921875 C 5.6875 -1.960938 5.460938 -1.21875 5.015625 -0.6875 C 4.566406 -0.164062 3.910156 0.09375 3.046875 0.09375 Z M 3.046875 -1.875 C 3.234375 -1.875 3.359375 -1.957031 3.421875 -2.125 C 3.492188 -2.289062 3.53125 -2.523438 3.53125 -2.828125 L 3.53125 -8.078125 C 3.53125 -8.316406 3.5 -8.507812 3.4375 -8.65625 C 3.375 -8.800781 3.242188 -8.875 3.046875 -8.875 C 2.691406 -8.875 2.515625 -8.601562 2.515625 -8.0625 L 2.515625 -2.8125 C 2.515625 -2.507812 2.550781 -2.273438 2.625 -2.109375 C 2.695312 -1.953125 2.835938 -1.875 3.046875 -1.875 Z M 3.046875 -1.875 "/></g></g></g><g fill="#fefeff" fill-opacity="1"><g transform="translate(20.163653, 15.156417)"><g><path d="M 2.984375 0.09375 C 2.191406 0.09375 1.5625 -0.148438 1.09375 -0.640625 C 0.625 -1.128906 0.390625 -1.804688 0.390625 -2.671875 L 0.390625 -7.625 C 0.390625 -8.6875 0.601562 -9.488281 1.03125 -10.03125 C 1.457031 -10.570312 2.125 -10.84375 3.03125 -10.84375 C 3.820312 -10.84375 4.457031 -10.625 4.9375 -10.1875 C 5.425781 -9.757812 5.671875 -9.140625 5.671875 -8.328125 L 5.671875 -6.46875 L 3.53125 -6.46875 L 3.53125 -8.0625 C 3.53125 -8.363281 3.488281 -8.570312 3.40625 -8.6875 C 3.332031 -8.8125 3.207031 -8.875 3.03125 -8.875 C 2.832031 -8.875 2.695312 -8.804688 2.625 -8.671875 C 2.5625 -8.535156 2.53125 -8.335938 2.53125 -8.078125 L 2.53125 -2.6875 C 2.53125 -2.40625 2.570312 -2.195312 2.65625 -2.0625 C 2.738281 -1.9375 2.863281 -1.875 3.03125 -1.875 C 3.363281 -1.875 3.53125 -2.144531 3.53125 -2.6875 L 3.53125 -4.625 L 5.6875 -4.625 L 5.6875 -2.609375 C 5.6875 -0.804688 4.785156 0.09375 2.984375 0.09375 Z M 2.984375 0.09375 "/></g></g></g><g fill="#fefeff" fill-opacity="1"><g transform="translate(26.71716, 15.156417)"><g><path d="M 0.375 0 L 0.375 -10.75 L 2.453125 -10.75 L 2.453125 0 Z M 0.375 0 "/></g></g></g><g fill="#fefeff" fill-opacity="1"><g transform="translate(30.181756, 15.156417)"><g><path d="M 0.1875 0 L 1.21875 -10.75 L 4.875 -10.75 L 5.890625 0 L 3.859375 0 L 3.703125 -1.734375 L 2.40625 -1.734375 L 2.28125 0 Z M 2.5625 -3.453125 L 3.546875 -3.453125 L 3.0625 -8.921875 L 2.96875 -8.921875 Z M 2.5625 -3.453125 "/></g></g></g><g fill="#fefeff" fill-opacity="1"><g transform="translate(36.872814, 15.156417)"><g><path d="M 2.984375 0.09375 C 2.191406 0.09375 1.5625 -0.148438 1.09375 -0.640625 C 0.625 -1.128906 0.390625 -1.804688 0.390625 -2.671875 L 0.390625 -7.625 C 0.390625 -8.6875 0.601562 -9.488281 1.03125 -10.03125 C 1.457031 -10.570312 2.125 -10.84375 3.03125 -10.84375 C 3.820312 -10.84375 4.457031 -10.625 4.9375 -10.1875 C 5.425781 -9.757812 5.671875 -9.140625 5.671875 -8.328125 L 5.671875 -6.46875 L 3.53125 -6.46875 L 3.53125 -8.0625 C 3.53125 -8.363281 3.488281 -8.570312 3.40625 -8.6875 C 3.332031 -8.8125 3.207031 -8.875 3.03125 -8.875 C 2.832031 -8.875 2.695312 -8.804688 2.625 -8.671875 C 2.5625 -8.535156 2.53125 -8.335938 2.53125 -8.078125 L 2.53125 -2.6875 C 2.53125 -2.40625 2.570312 -2.195312 2.65625 -2.0625 C 2.738281 -1.9375 2.863281 -1.875 3.03125 -1.875 C 3.363281 -1.875 3.53125 -2.144531 3.53125 -2.6875 L 3.53125 -4.625 L 5.6875 -4.625 L 5.6875 -2.609375 C 5.6875 -0.804688 4.785156 0.09375 2.984375 0.09375 Z M 2.984375 0.09375 "/></g></g></g><g fill="#fefeff" fill-opacity="1"><g transform="translate(43.42632, 15.156417)"><g><path d="M 0.375 0 L 0.375 -10.75 L 2.453125 -10.75 L 2.453125 0 Z M 0.375 0 "/></g></g></g><g fill="#fefeff" fill-opacity="1"><g transform="translate(46.890916, 15.156417)"><g><path d="M 3.046875 0.09375 C 2.171875 0.09375 1.507812 -0.164062 1.0625 -0.6875 C 0.613281 -1.21875 0.390625 -1.960938 0.390625 -2.921875 L 0.390625 -8.046875 C 0.390625 -8.972656 0.613281 -9.671875 1.0625 -10.140625 C 1.507812 -10.609375 2.171875 -10.84375 3.046875 -10.84375 C 3.910156 -10.84375 4.566406 -10.609375 5.015625 -10.140625 C 5.460938 -9.671875 5.6875 -8.972656 5.6875 -8.046875 L 5.6875 -2.921875 C 5.6875 -1.960938 5.460938 -1.21875 5.015625 -0.6875 C 4.566406 -0.164062 3.910156 0.09375 3.046875 0.09375 Z M 3.046875 -1.875 C 3.234375 -1.875 3.359375 -1.957031 3.421875 -2.125 C 3.492188 -2.289062 3.53125 -2.523438 3.53125 -2.828125 L 3.53125 -8.078125 C 3.53125 -8.316406 3.5 -8.507812 3.4375 -8.65625 C 3.375 -8.800781 3.242188 -8.875 3.046875 -8.875 C 2.691406 -8.875 2.515625 -8.601562 2.515625 -8.0625 L 2.515625 -2.8125 C 2.515625 -2.507812 2.550781 -2.273438 2.625 -2.109375 C 2.695312 -1.953125 2.835938 -1.875 3.046875 -1.875 Z M 1.578125 -11.078125 L 1.578125 -12.4375 L 4.484375 -13.78125 L 4.484375 -11.65625 Z M 1.578125 -11.078125 "/></g></g></g><g fill="#fefeff" fill-opacity="1"><g transform="translate(53.59448, 15.156417)"><g><path d="M 0.46875 0 L 0.46875 -10.75 L 2.6875 -10.75 L 3.671875 -5.609375 L 3.671875 -10.75 L 5.75 -10.75 L 5.75 0 L 3.65625 0 L 2.578125 -5.375 L 2.578125 0 Z M 0.46875 0 "/></g></g></g><g fill="#fefeff" fill-opacity="1"><g transform="translate(60.452755, 15.156417)"><g/></g></g><g clip-path="url(#77a0e44f6d)"><g fill="#fefeff" fill-opacity="1"><g transform="translate(0.378101, 31.030119)"><g><path d="M 0.15625 0 L 1.3125 -5.703125 L 0.40625 -10.765625 L 2.5 -10.765625 L 3.0625 -7.0625 L 3.546875 -10.765625 L 5.671875 -10.765625 L 4.75 -5.703125 L 5.890625 0 L 3.71875 0 L 3.046875 -4.203125 L 2.359375 0 Z M 0.15625 0 "/></g></g></g></g><g fill="#fefeff" fill-opacity="1"><g transform="translate(7.056654, 31.030119)"><g><path d="M 2.96875 0.09375 C 2.082031 0.09375 1.421875 -0.15625 0.984375 -0.65625 C 0.554688 -1.15625 0.34375 -1.894531 0.34375 -2.875 L 0.34375 -10.75 L 2.4375 -10.75 L 2.4375 -2.96875 C 2.4375 -2.625 2.46875 -2.351562 2.53125 -2.15625 C 2.601562 -1.96875 2.75 -1.875 2.96875 -1.875 C 3.1875 -1.875 3.328125 -1.96875 3.390625 -2.15625 C 3.453125 -2.34375 3.484375 -2.613281 3.484375 -2.96875 L 3.484375 -10.75 L 5.578125 -10.75 L 5.578125 -2.875 C 5.578125 -1.894531 5.363281 -1.15625 4.9375 -0.65625 C 4.507812 -0.15625 3.851562 0.09375 2.96875 0.09375 Z M 2.96875 0.09375 "/></g></g></g><g fill="#fefeff" fill-opacity="1"><g transform="translate(13.61016, 31.030119)"><g><path d="M 1.46875 0 L 0.140625 -10.765625 L 2.1875 -10.765625 L 2.984375 -3.4375 L 3.671875 -10.765625 L 5.734375 -10.765625 L 4.40625 0 Z M 1.46875 0 "/></g></g></g><g fill="#fefeff" fill-opacity="1"><g transform="translate(20.101137, 31.030119)"><g><path d="M 0.46875 0 L 0.46875 -10.75 L 4.78125 -10.75 L 4.78125 -8.671875 L 2.671875 -8.671875 L 2.671875 -6.578125 L 4.6875 -6.578125 L 4.6875 -4.5625 L 2.671875 -4.5625 L 2.671875 -2.09375 L 4.921875 -2.09375 L 4.921875 0 Z M 0.46875 0 "/></g></g></g><g fill="#fefeff" fill-opacity="1"><g transform="translate(25.879292, 31.030119)"><g><path d="M 0.46875 0 L 0.46875 -10.75 L 2.6875 -10.75 L 3.671875 -5.609375 L 3.671875 -10.75 L 5.75 -10.75 L 5.75 0 L 3.65625 0 L 2.578125 -5.375 L 2.578125 0 Z M 0.46875 0 "/></g></g></g><g fill="#fefeff" fill-opacity="1"><g transform="translate(32.732927, 31.030119)"><g><path d="M 0.375 0 L 0.375 -10.75 L 2.453125 -10.75 L 2.453125 0 Z M 0.375 0 "/></g></g></g><g fill="#fefeff" fill-opacity="1"><g transform="translate(36.197523, 31.030119)"><g><path d="M 0.46875 0 L 0.46875 -10.75 L 2.625 -10.75 L 2.625 -1.828125 L 4.84375 -1.828125 L 4.84375 0 Z M 0.46875 0 "/></g></g></g><g clip-path="url(#a21e668b80)"><g fill="#fefeff" fill-opacity="1"><g transform="translate(0.378101, 46.903822)"><g><path d="M 0.46875 -10.75 L 3.4375 -10.75 C 4.207031 -10.75 4.785156 -10.535156 5.171875 -10.109375 C 5.554688 -9.679688 5.75 -9.050781 5.75 -8.21875 L 5.78125 -3.1875 C 5.789062 -2.132812 5.609375 -1.335938 5.234375 -0.796875 C 4.859375 -0.265625 4.234375 0 3.359375 0 L 0.46875 0 Z M 3.015625 -1.90625 C 3.410156 -1.90625 3.609375 -2.097656 3.609375 -2.484375 L 3.609375 -8.015625 C 3.609375 -8.265625 3.585938 -8.445312 3.546875 -8.5625 C 3.503906 -8.6875 3.429688 -8.769531 3.328125 -8.8125 C 3.234375 -8.851562 3.082031 -8.875 2.875 -8.875 L 2.640625 -8.875 L 2.640625 -1.90625 Z M 3.015625 -1.90625 "/></g></g></g></g><g fill="#fefeff" fill-opacity="1"><g transform="translate(7.169206, 46.903822)"><g><path d="M 0.46875 0 L 0.46875 -10.75 L 4.78125 -10.75 L 4.78125 -8.671875 L 2.671875 -8.671875 L 2.671875 -6.578125 L 4.6875 -6.578125 L 4.6875 -4.5625 L 2.671875 -4.5625 L 2.671875 -2.09375 L 4.921875 -2.09375 L 4.921875 0 Z M 0.46875 0 "/></g></g></g><g clip-path="url(#1d276bdbf1)"><g fill="#fefeff" fill-opacity="1"><g transform="translate(0.378101, 62.777524)"><g><path d="M 0.46875 -10.75 L 3.4375 -10.75 C 4.207031 -10.75 4.785156 -10.535156 5.171875 -10.109375 C 5.554688 -9.679688 5.75 -9.050781 5.75 -8.21875 L 5.78125 -3.1875 C 5.789062 -2.132812 5.609375 -1.335938 5.234375 -0.796875 C 4.859375 -0.265625 4.234375 0 3.359375 0 L 0.46875 0 Z M 3.015625 -1.90625 C 3.410156 -1.90625 3.609375 -2.097656 3.609375 -2.484375 L 3.609375 -8.015625 C 3.609375 -8.265625 3.585938 -8.445312 3.546875 -8.5625 C 3.503906 -8.6875 3.429688 -8.769531 3.328125 -8.8125 C 3.234375 -8.851562 3.082031 -8.875 2.875 -8.875 L 2.640625 -8.875 L 2.640625 -1.90625 Z M 3.015625 -1.90625 "/></g></g></g></g><g fill="#fefeff" fill-opacity="1"><g transform="translate(7.169206, 62.777524)"><g><path d="M 0.375 0 L 0.375 -10.75 L 2.453125 -10.75 L 2.453125 0 Z M 0.375 0 "/></g></g></g><g fill="#fefeff" fill-opacity="1"><g transform="translate(10.633802, 62.777524)"><g><path d="M 0.1875 0 L 1.21875 -10.75 L 4.875 -10.75 L 5.890625 0 L 3.859375 0 L 3.703125 -1.734375 L 2.40625 -1.734375 L 2.28125 0 Z M 2.5625 -3.453125 L 3.546875 -3.453125 L 3.0625 -8.921875 L 2.96875 -8.921875 Z M 2.5625 -3.453125 "/></g></g></g><g fill="#fefeff" fill-opacity="1"><g transform="translate(17.32486, 62.777524)"><g><path d="M 0.46875 -10.75 L 3.390625 -10.75 C 4.171875 -10.75 4.738281 -10.554688 5.09375 -10.171875 C 5.445312 -9.785156 5.625 -9.160156 5.625 -8.296875 L 5.625 -7.828125 C 5.625 -6.796875 5.257812 -6.179688 4.53125 -5.984375 C 4.976562 -5.867188 5.289062 -5.597656 5.46875 -5.171875 C 5.65625 -4.742188 5.75 -4.179688 5.75 -3.484375 C 5.75 -2.335938 5.578125 -1.46875 5.234375 -0.875 C 4.898438 -0.289062 4.285156 0 3.390625 0 L 0.46875 0 Z M 3.015625 -6.703125 C 3.203125 -6.703125 3.328125 -6.769531 3.390625 -6.90625 C 3.453125 -7.050781 3.484375 -7.25 3.484375 -7.5 L 3.484375 -8.578125 C 3.484375 -8.921875 3.332031 -9.09375 3.03125 -9.09375 L 2.578125 -9.09375 L 2.578125 -6.703125 Z M 2.796875 -1.890625 C 3.347656 -1.890625 3.625 -2.15625 3.625 -2.6875 L 3.625 -4.03125 C 3.625 -4.351562 3.578125 -4.597656 3.484375 -4.765625 C 3.390625 -4.929688 3.222656 -5.015625 2.984375 -5.015625 L 2.578125 -5.015625 L 2.578125 -1.90625 Z M 2.796875 -1.890625 "/></g></g></g><g fill="#fefeff" fill-opacity="1"><g transform="translate(23.940896, 62.777524)"><g><path d="M 0.46875 0 L 0.46875 -10.75 L 4.78125 -10.75 L 4.78125 -8.671875 L 2.671875 -8.671875 L 2.671875 -6.578125 L 4.6875 -6.578125 L 4.6875 -4.5625 L 2.671875 -4.5625 L 2.671875 -2.09375 L 4.921875 -2.09375 L 4.921875 0 Z M 0.46875 0 "/></g></g></g><g fill="#fefeff" fill-opacity="1"><g transform="translate(29.719052, 62.777524)"><g><path d="M 1.40625 0 L 1.40625 -8.6875 L 0.125 -8.6875 L 0.125 -10.75 L 4.828125 -10.75 L 4.828125 -8.6875 L 3.546875 -8.6875 L 3.546875 0 Z M 1.40625 0 "/></g></g></g><g fill="#fefeff" fill-opacity="1"><g transform="translate(35.297113, 62.777524)"><g><path d="M 0.46875 0 L 0.46875 -10.75 L 4.78125 -10.75 L 4.78125 -8.671875 L 2.671875 -8.671875 L 2.671875 -6.578125 L 4.6875 -6.578125 L 4.6875 -4.5625 L 2.671875 -4.5625 L 2.671875 -2.09375 L 4.921875 -2.09375 L 4.921875 0 Z M 0.46875 0 "/></g></g></g><g fill="#fefeff" fill-opacity="1"><g transform="translate(41.075269, 62.777524)"><g><path d="M 3.03125 0.09375 C 2.050781 0.09375 1.34375 -0.144531 0.90625 -0.625 C 0.476562 -1.113281 0.265625 -1.894531 0.265625 -2.96875 L 0.265625 -4.015625 L 2.375 -4.015625 L 2.375 -2.671875 C 2.375 -2.140625 2.546875 -1.875 2.890625 -1.875 C 3.078125 -1.875 3.207031 -1.929688 3.28125 -2.046875 C 3.363281 -2.160156 3.40625 -2.347656 3.40625 -2.609375 C 3.40625 -2.960938 3.363281 -3.253906 3.28125 -3.484375 C 3.195312 -3.710938 3.085938 -3.90625 2.953125 -4.0625 C 2.828125 -4.21875 2.597656 -4.457031 2.265625 -4.78125 L 1.34375 -5.703125 C 0.625 -6.410156 0.265625 -7.1875 0.265625 -8.03125 C 0.265625 -8.945312 0.472656 -9.644531 0.890625 -10.125 C 1.316406 -10.601562 1.929688 -10.84375 2.734375 -10.84375 C 3.703125 -10.84375 4.398438 -10.585938 4.828125 -10.078125 C 5.253906 -9.566406 5.46875 -8.765625 5.46875 -7.671875 L 3.28125 -7.671875 L 3.265625 -8.40625 C 3.265625 -8.550781 3.222656 -8.664062 3.140625 -8.75 C 3.066406 -8.832031 2.957031 -8.875 2.8125 -8.875 C 2.644531 -8.875 2.519531 -8.828125 2.4375 -8.734375 C 2.351562 -8.640625 2.3125 -8.515625 2.3125 -8.359375 C 2.3125 -8.003906 2.515625 -7.640625 2.921875 -7.265625 L 4.171875 -6.0625 C 4.460938 -5.78125 4.703125 -5.507812 4.890625 -5.25 C 5.085938 -5 5.242188 -4.703125 5.359375 -4.359375 C 5.472656 -4.015625 5.53125 -3.601562 5.53125 -3.125 C 5.53125 -2.070312 5.335938 -1.269531 4.953125 -0.71875 C 4.566406 -0.175781 3.925781 0.09375 3.03125 0.09375 Z M 3.03125 0.09375 "/></g></g></g><g fill="#fefeff" fill-opacity="1"><g transform="translate(47.477047, 62.777524)"><g/></g></g></g></g><g clip-path="url(#97873d74ed)"><g clip-path="url(#0b7597293b)"><g transform="matrix(1, 0, 0, 1, 10, 21)"><g clip-path="url(#126557172e)"><g clip-path="url(#fc7f99537a)"><g clip-path="url(#21d41d17b2)"><path fill="#fefeff" d="M 0.988281 0.515625 L 187.871094 0.515625 L 187.871094 176.402344 L 0.988281 176.402344 Z M 0.988281 0.515625 " fill-opacity="1" fill-rule="nonzero"/></g></g></g></g></g></g></svg>