<svg xmlns="http://www.w3.org/2000/svg" xmlns:xlink="http://www.w3.org/1999/xlink" width="500" zoomAndPan="magnify" viewBox="0 0 375 374.999991" height="500" preserveAspectRatio="xMidYMid meet" version="1.0"><defs><g/><clipPath id="d3519c3e17"><path d="M 0 0 L 375 0 L 375 375 L 0 375 Z M 0 0 " clip-rule="nonzero"/></clipPath><clipPath id="9ad730c20d"><rect x="0" width="375" y="0" height="375"/></clipPath><clipPath id="cea0be6e09"><path d="M 0 0 L 374.988281 0 L 374.988281 374.988281 L 0 374.988281 Z M 0 0 " clip-rule="nonzero"/></clipPath><clipPath id="eaee54518e"><path d="M 29.042969 34.699219 L 197 34.699219 L 197 192.59375 L 29.042969 192.59375 Z M 29.042969 34.699219 " clip-rule="nonzero"/></clipPath><clipPath id="a0d6c653e8"><path d="M 29.042969 192.59375 C 29.042969 151.011719 46.957031 110.347656 78.222656 80.945312 C 109.492188 51.539062 152.734375 34.699219 196.953125 34.699219 L 196.953125 115.25 C 175.292969 115.25 154.113281 123.5 138.796875 137.90625 C 123.480469 152.308594 114.707031 172.226562 114.707031 192.59375 Z M 29.042969 192.59375 " clip-rule="nonzero"/></clipPath><clipPath id="7c926af238"><path d="M 0.0429688 0.699219 L 168 0.699219 L 168 158.59375 L 0.0429688 158.59375 Z M 0.0429688 0.699219 " clip-rule="nonzero"/></clipPath><clipPath id="7662826774"><path d="M 0.0429688 158.59375 C 0.0429688 117.011719 17.957031 76.347656 49.222656 46.945312 C 80.492188 17.539062 123.734375 0.699219 167.953125 0.699219 L 167.953125 81.25 C 146.292969 81.25 125.113281 89.5 109.796875 103.90625 C 94.480469 118.308594 85.707031 138.226562 85.707031 158.59375 Z M 0.0429688 158.59375 " clip-rule="nonzero"/></clipPath><clipPath id="ea873173b1"><rect x="0" width="168" y="0" height="159"/></clipPath><clipPath id="3fad49b996"><path d="M 196.527344 192.589844 L 345.949219 192.589844 L 345.949219 332.707031 L 196.527344 332.707031 Z M 196.527344 192.589844 " clip-rule="nonzero"/></clipPath><clipPath id="a110d18b28"><path d="M 345.949219 192.589844 C 345.949219 229.492188 330.054688 265.574219 302.308594 291.667969 C 274.558594 317.761719 236.1875 332.707031 196.949219 332.707031 L 196.949219 261.222656 C 216.167969 261.222656 234.964844 253.902344 248.554688 241.121094 C 262.148438 228.339844 269.933594 210.667969 269.933594 192.589844 Z M 345.949219 192.589844 " clip-rule="nonzero"/></clipPath><clipPath id="32ee354bdf"><path d="M 1 0.589844 L 149.949219 0.589844 L 149.949219 140.707031 L 1 140.707031 Z M 1 0.589844 " clip-rule="nonzero"/></clipPath><clipPath id="fd025ced6c"><path d="M 149.949219 0.589844 C 149.949219 37.492188 134.054688 73.574219 106.308594 99.667969 C 78.558594 125.761719 40.1875 140.707031 0.949219 140.707031 L 0.949219 69.222656 C 20.167969 69.222656 38.964844 61.902344 52.554688 49.121094 C 66.148438 36.339844 73.933594 18.667969 73.933594 0.589844 Z M 149.949219 0.589844 " clip-rule="nonzero"/></clipPath><clipPath id="87441640af"><rect x="0" width="150" y="0" height="141"/></clipPath><clipPath id="28c7d2e37f"><path d="M 113 147 L 303 147 L 303 205.257812 L 113 205.257812 Z M 113 147 " clip-rule="nonzero"/></clipPath><clipPath id="eb2b21cb7d"><path d="M 0.121094 12 L 21 12 L 21 50 L 0.121094 50 Z M 0.121094 12 " clip-rule="nonzero"/></clipPath><clipPath id="d2a10baa7c"><rect x="0" width="86" y="0" height="65"/></clipPath><clipPath id="a64bbc96da"><path d="M 0.121094 3 L 6 3 L 6 14 L 0.121094 14 Z M 0.121094 3 " clip-rule="nonzero"/></clipPath><clipPath id="7ef99f0814"><path d="M 42 0.359375 L 48 0.359375 L 48 14 L 42 14 Z M 42 0.359375 " clip-rule="nonzero"/></clipPath><clipPath id="7870322d37"><path d="M 0.121094 17 L 6 17 L 6 28 L 0.121094 28 Z M 0.121094 17 " clip-rule="nonzero"/></clipPath><clipPath id="cec70e53e6"><path d="M 0.121094 32 L 6 32 L 6 42 L 0.121094 42 Z M 0.121094 32 " clip-rule="nonzero"/></clipPath><clipPath id="984ee39eae"><path d="M 0.121094 46 L 6 46 L 6 56 L 0.121094 56 Z M 0.121094 46 " clip-rule="nonzero"/></clipPath><clipPath id="aeba8af9c2"><rect x="0" width="58" y="0" height="61"/></clipPath><clipPath id="b9ddda29c8"><rect x="0" width="375" y="0" height="375"/></clipPath></defs><g transform="matrix(1, 0, 0, 1, 0, 0)"><g clip-path="url(#b9ddda29c8)"><g transform="matrix(1, 0, 0, 1, 0, 0)"><g clip-path="url(#9ad730c20d)"><g clip-path="url(#d3519c3e17)"><rect x="-136.5" width="648" fill="#004aac" y="-136.499997" height="647.999984" fill-opacity="1"/></g></g></g><g clip-path="url(#cea0be6e09)"><path stroke-linecap="butt" transform="matrix(0.778667, 0, 0, 0.778667, 0.0000045, 0)" fill="none" stroke-linejoin="miter" d="M -0.00000577911 0 L 481.577063 0 L 481.577063 481.577068 L -0.00000577911 481.577068 Z M -0.00000577911 0 " stroke="#1e1e1e" stroke-width="1.926368" stroke-opacity="1" stroke-miterlimit="4"/></g><g clip-path="url(#eaee54518e)"><g clip-path="url(#a0d6c653e8)"><g transform="matrix(1, 0, 0, 1, 29, 34)"><g clip-path="url(#ea873173b1)"><g clip-path="url(#7c926af238)"><g clip-path="url(#7662826774)"><path fill="#fefeff" d="M 0.0429688 0.699219 L 167.808594 0.699219 L 167.808594 158.59375 L 0.0429688 158.59375 Z M 0.0429688 0.699219 " fill-opacity="1" fill-rule="nonzero"/></g></g></g></g></g></g><g clip-path="url(#3fad49b996)"><g clip-path="url(#a110d18b28)"><g transform="matrix(1, 0, 0, 1, 196, 192)"><g clip-path="url(#87441640af)"><g clip-path="url(#32ee354bdf)"><g clip-path="url(#fd025ced6c)"><path fill="#fefeff" d="M 149.949219 140.707031 L 1.074219 140.707031 L 1.074219 0.589844 L 149.949219 0.589844 Z M 149.949219 140.707031 " fill-opacity="1" fill-rule="nonzero"/></g></g></g></g></g></g><g clip-path="url(#28c7d2e37f)"><path fill="#fefeff" d="M 119.84375 177.113281 C 108.8125 189.441406 87.859375 198.394531 77.285156 210.925781 C 79.234375 209.195312 87.054688 208.804688 87.132812 208.789062 C 107.914062 206.25 122.632812 180.613281 134.847656 164.925781 C 150.128906 145.296875 158.5 159.550781 165.660156 162.265625 C 170.816406 164.226562 182.707031 180.40625 183.671875 180.40625 C 199.402344 180.136719 208.085938 159.089844 213.902344 166.769531 C 228.484375 186.050781 233.347656 183.574219 243.472656 194.496094 C 248.476562 199.894531 260.214844 178.433594 269.605469 193.4375 C 274.257812 200.878906 282.449219 202.960938 288.675781 208.117188 C 298.824219 216.539062 305.988281 212.390625 300.945312 209.511719 C 282.804688 199.101562 285.535156 202.398438 269.097656 186.65625 C 249.96875 168.335938 258.769531 207.585938 232.25 176.890625 C 202.894531 142.90625 207.910156 171 189.234375 174.097656 C 181.644531 175.359375 167.839844 142.21875 149.832031 148.488281 C 148.972656 148.789062 121.925781 174.832031 119.875 177.125 " fill-opacity="1" fill-rule="evenodd"/></g><g transform="matrix(1, 0, 0, 1, 135, 187)"><g clip-path="url(#d2a10baa7c)"><g clip-path="url(#eb2b21cb7d)"><g fill="#fefeff" fill-opacity="1"><g transform="translate(0.323316, 49.741732)"><g><path d="M 0.640625 0 L 4.21875 -36.953125 L 16.734375 -36.953125 L 20.265625 0 L 13.25 0 L 12.734375 -5.984375 L 8.265625 -5.984375 L 7.828125 0 Z M 8.8125 -11.875 L 12.171875 -11.875 L 10.53125 -30.671875 L 10.1875 -30.671875 Z M 8.8125 -11.875 "/></g></g></g></g><g fill="#fefeff" fill-opacity="1"><g transform="translate(19.023869, 49.741732)"><g><path d="M 0.5625 0 L 4.515625 -19.609375 L 1.375 -37 L 8.609375 -37 L 10.53125 -24.265625 L 12.21875 -37 L 19.484375 -37 L 16.296875 -19.609375 L 20.265625 0 L 12.78125 0 L 10.453125 -14.453125 L 8.09375 0 Z M 0.5625 0 "/></g></g></g><g fill="#fefeff" fill-opacity="1"><g transform="translate(37.681424, 49.741732)"><g><path d="M 10.1875 0.34375 C 7.15625 0.34375 4.898438 -0.515625 3.421875 -2.234375 C 1.941406 -3.953125 1.203125 -6.503906 1.203125 -9.890625 L 1.203125 -36.953125 L 8.390625 -36.953125 L 8.390625 -10.1875 C 8.390625 -9.019531 8.503906 -8.101562 8.734375 -7.4375 C 8.960938 -6.78125 9.445312 -6.453125 10.1875 -6.453125 C 10.9375 -6.453125 11.425781 -6.773438 11.65625 -7.421875 C 11.882812 -8.066406 12 -8.988281 12 -10.1875 L 12 -36.953125 L 19.1875 -36.953125 L 19.1875 -9.890625 C 19.1875 -6.503906 18.445312 -3.953125 16.96875 -2.234375 C 15.488281 -0.515625 13.226562 0.34375 10.1875 0.34375 Z M 10.1875 0.34375 "/></g></g></g><g fill="#fefeff" fill-opacity="1"><g transform="translate(55.909054, 49.741732)"><g><path d="M 1.640625 -36.953125 L 11.828125 -36.953125 C 14.460938 -36.953125 16.441406 -36.21875 17.765625 -34.75 C 19.085938 -33.289062 19.757812 -31.128906 19.78125 -28.265625 L 19.875 -10.96875 C 19.90625 -7.320312 19.273438 -4.582031 17.984375 -2.75 C 16.691406 -0.914062 14.554688 0 11.578125 0 L 1.640625 0 Z M 10.359375 -6.53125 C 11.710938 -6.53125 12.390625 -7.191406 12.390625 -8.515625 L 12.390625 -27.578125 C 12.390625 -28.410156 12.320312 -29.03125 12.1875 -29.4375 C 12.0625 -29.851562 11.828125 -30.132812 11.484375 -30.28125 C 11.140625 -30.425781 10.609375 -30.5 9.890625 -30.5 L 9.078125 -30.5 L 9.078125 -6.53125 Z M 10.359375 -6.53125 "/></g></g></g><g fill="#fefeff" fill-opacity="1"><g transform="translate(74.953554, 49.741732)"><g><path d="M 1.296875 0 L 1.296875 -36.953125 L 8.4375 -36.953125 L 8.4375 0 Z M 1.296875 0 "/></g></g></g></g></g><g transform="matrix(1, 0, 0, 1, 135, 267)"><g clip-path="url(#aeba8af9c2)"><g clip-path="url(#a64bbc96da)"><g fill="#fefeff" fill-opacity="1"><g transform="translate(0.323316, 13.088253)"><g><path d="M 0.171875 0 L 1.09375 -9.65625 L 4.375 -9.65625 L 5.296875 0 L 3.453125 0 L 3.328125 -1.5625 L 2.15625 -1.5625 L 2.046875 0 Z M 2.296875 -3.09375 L 3.171875 -3.09375 L 2.75 -8.015625 L 2.65625 -8.015625 Z M 2.296875 -3.09375 "/></g></g></g></g><g fill="#fefeff" fill-opacity="1"><g transform="translate(6.328995, 13.088253)"><g><path d="M 2.71875 0.09375 C 1.84375 0.09375 1.207031 -0.125 0.8125 -0.5625 C 0.425781 -1 0.234375 -1.695312 0.234375 -2.65625 L 0.234375 -3.609375 L 2.140625 -3.609375 L 2.140625 -2.40625 C 2.140625 -1.925781 2.289062 -1.6875 2.59375 -1.6875 C 2.769531 -1.6875 2.890625 -1.734375 2.953125 -1.828125 C 3.023438 -1.929688 3.0625 -2.101562 3.0625 -2.34375 C 3.0625 -2.65625 3.019531 -2.914062 2.9375 -3.125 C 2.863281 -3.332031 2.769531 -3.503906 2.65625 -3.640625 C 2.539062 -3.785156 2.332031 -4.003906 2.03125 -4.296875 L 1.203125 -5.125 C 0.554688 -5.75 0.234375 -6.445312 0.234375 -7.21875 C 0.234375 -8.039062 0.421875 -8.664062 0.796875 -9.09375 C 1.179688 -9.519531 1.734375 -9.734375 2.453125 -9.734375 C 3.328125 -9.734375 3.953125 -9.503906 4.328125 -9.046875 C 4.710938 -8.585938 4.90625 -7.867188 4.90625 -6.890625 L 2.9375 -6.890625 L 2.9375 -7.546875 C 2.9375 -7.671875 2.898438 -7.769531 2.828125 -7.84375 C 2.753906 -7.925781 2.65625 -7.96875 2.53125 -7.96875 C 2.375 -7.96875 2.257812 -7.925781 2.1875 -7.84375 C 2.113281 -7.757812 2.078125 -7.644531 2.078125 -7.5 C 2.078125 -7.1875 2.257812 -6.863281 2.625 -6.53125 L 3.734375 -5.453125 C 4.003906 -5.191406 4.222656 -4.945312 4.390625 -4.71875 C 4.566406 -4.488281 4.707031 -4.21875 4.8125 -3.90625 C 4.914062 -3.601562 4.96875 -3.238281 4.96875 -2.8125 C 4.96875 -1.851562 4.789062 -1.128906 4.4375 -0.640625 C 4.09375 -0.148438 3.519531 0.09375 2.71875 0.09375 Z M 2.71875 0.09375 "/></g></g></g><g fill="#fefeff" fill-opacity="1"><g transform="translate(12.065279, 13.088253)"><g><path d="M 2.734375 0.09375 C 1.953125 0.09375 1.359375 -0.144531 0.953125 -0.625 C 0.546875 -1.101562 0.34375 -1.769531 0.34375 -2.625 L 0.34375 -7.21875 C 0.34375 -8.050781 0.546875 -8.675781 0.953125 -9.09375 C 1.359375 -9.519531 1.953125 -9.734375 2.734375 -9.734375 C 3.503906 -9.734375 4.09375 -9.519531 4.5 -9.09375 C 4.90625 -8.675781 5.109375 -8.050781 5.109375 -7.21875 L 5.109375 -2.625 C 5.109375 -1.757812 4.90625 -1.085938 4.5 -0.609375 C 4.09375 -0.140625 3.503906 0.09375 2.734375 0.09375 Z M 2.734375 -1.6875 C 2.898438 -1.6875 3.015625 -1.757812 3.078125 -1.90625 C 3.140625 -2.0625 3.171875 -2.269531 3.171875 -2.53125 L 3.171875 -7.25 C 3.171875 -7.46875 3.140625 -7.640625 3.078125 -7.765625 C 3.023438 -7.898438 2.910156 -7.96875 2.734375 -7.96875 C 2.421875 -7.96875 2.265625 -7.722656 2.265625 -7.234375 L 2.265625 -2.53125 C 2.265625 -2.25 2.296875 -2.035156 2.359375 -1.890625 C 2.421875 -1.753906 2.546875 -1.6875 2.734375 -1.6875 Z M 2.734375 -1.6875 "/></g></g></g><g fill="#fefeff" fill-opacity="1"><g transform="translate(18.082174, 13.088253)"><g><path d="M 2.671875 0.09375 C 1.972656 0.09375 1.410156 -0.125 0.984375 -0.5625 C 0.554688 -1.007812 0.34375 -1.617188 0.34375 -2.390625 L 0.34375 -6.84375 C 0.34375 -7.800781 0.535156 -8.519531 0.921875 -9 C 1.304688 -9.488281 1.90625 -9.734375 2.71875 -9.734375 C 3.425781 -9.734375 4 -9.539062 4.4375 -9.15625 C 4.875 -8.769531 5.09375 -8.207031 5.09375 -7.46875 L 5.09375 -5.8125 L 3.171875 -5.8125 L 3.171875 -7.234375 C 3.171875 -7.515625 3.132812 -7.707031 3.0625 -7.8125 C 3 -7.914062 2.882812 -7.96875 2.71875 -7.96875 C 2.539062 -7.96875 2.421875 -7.90625 2.359375 -7.78125 C 2.296875 -7.664062 2.265625 -7.488281 2.265625 -7.25 L 2.265625 -2.421875 C 2.265625 -2.160156 2.300781 -1.972656 2.375 -1.859375 C 2.457031 -1.742188 2.570312 -1.6875 2.71875 -1.6875 C 3.019531 -1.6875 3.171875 -1.929688 3.171875 -2.421875 L 3.171875 -4.15625 L 5.109375 -4.15625 L 5.109375 -2.34375 C 5.109375 -0.71875 4.296875 0.09375 2.671875 0.09375 Z M 2.671875 0.09375 "/></g></g></g><g fill="#fefeff" fill-opacity="1"><g transform="translate(23.964383, 13.088253)"><g><path d="M 0.34375 0 L 0.34375 -9.65625 L 2.203125 -9.65625 L 2.203125 0 Z M 0.34375 0 "/></g></g></g><g fill="#fefeff" fill-opacity="1"><g transform="translate(27.074142, 13.088253)"><g><path d="M 0.171875 0 L 1.09375 -9.65625 L 4.375 -9.65625 L 5.296875 0 L 3.453125 0 L 3.328125 -1.5625 L 2.15625 -1.5625 L 2.046875 0 Z M 2.296875 -3.09375 L 3.171875 -3.09375 L 2.75 -8.015625 L 2.65625 -8.015625 Z M 2.296875 -3.09375 "/></g></g></g><g fill="#fefeff" fill-opacity="1"><g transform="translate(33.079821, 13.088253)"><g><path d="M 2.671875 0.09375 C 1.972656 0.09375 1.410156 -0.125 0.984375 -0.5625 C 0.554688 -1.007812 0.34375 -1.617188 0.34375 -2.390625 L 0.34375 -6.84375 C 0.34375 -7.800781 0.535156 -8.519531 0.921875 -9 C 1.304688 -9.488281 1.90625 -9.734375 2.71875 -9.734375 C 3.425781 -9.734375 4 -9.539062 4.4375 -9.15625 C 4.875 -8.769531 5.09375 -8.207031 5.09375 -7.46875 L 5.09375 -5.8125 L 3.171875 -5.8125 L 3.171875 -7.234375 C 3.171875 -7.515625 3.132812 -7.707031 3.0625 -7.8125 C 3 -7.914062 2.882812 -7.96875 2.71875 -7.96875 C 2.539062 -7.96875 2.421875 -7.90625 2.359375 -7.78125 C 2.296875 -7.664062 2.265625 -7.488281 2.265625 -7.25 L 2.265625 -2.421875 C 2.265625 -2.160156 2.300781 -1.972656 2.375 -1.859375 C 2.457031 -1.742188 2.570312 -1.6875 2.71875 -1.6875 C 3.019531 -1.6875 3.171875 -1.929688 3.171875 -2.421875 L 3.171875 -4.15625 L 5.109375 -4.15625 L 5.109375 -2.34375 C 5.109375 -0.71875 4.296875 0.09375 2.671875 0.09375 Z M 2.671875 0.09375 "/></g></g></g><g fill="#fefeff" fill-opacity="1"><g transform="translate(38.96203, 13.088253)"><g><path d="M 0.34375 0 L 0.34375 -9.65625 L 2.203125 -9.65625 L 2.203125 0 Z M 0.34375 0 "/></g></g></g><g clip-path="url(#7ef99f0814)"><g fill="#fefeff" fill-opacity="1"><g transform="translate(42.071789, 13.088253)"><g><path d="M 2.734375 0.09375 C 1.953125 0.09375 1.359375 -0.144531 0.953125 -0.625 C 0.546875 -1.101562 0.34375 -1.769531 0.34375 -2.625 L 0.34375 -7.21875 C 0.34375 -8.050781 0.546875 -8.675781 0.953125 -9.09375 C 1.359375 -9.519531 1.953125 -9.734375 2.734375 -9.734375 C 3.503906 -9.734375 4.09375 -9.519531 4.5 -9.09375 C 4.90625 -8.675781 5.109375 -8.050781 5.109375 -7.21875 L 5.109375 -2.625 C 5.109375 -1.757812 4.90625 -1.085938 4.5 -0.609375 C 4.09375 -0.140625 3.503906 0.09375 2.734375 0.09375 Z M 2.734375 -1.6875 C 2.898438 -1.6875 3.015625 -1.757812 3.078125 -1.90625 C 3.140625 -2.0625 3.171875 -2.269531 3.171875 -2.53125 L 3.171875 -7.25 C 3.171875 -7.46875 3.140625 -7.640625 3.078125 -7.765625 C 3.023438 -7.898438 2.910156 -7.96875 2.734375 -7.96875 C 2.421875 -7.96875 2.265625 -7.722656 2.265625 -7.234375 L 2.265625 -2.53125 C 2.265625 -2.25 2.296875 -2.035156 2.359375 -1.890625 C 2.421875 -1.753906 2.546875 -1.6875 2.734375 -1.6875 Z M 1.4375 -9.9375 L 1.4375 -11.15625 L 4.03125 -12.359375 L 4.03125 -10.453125 Z M 1.4375 -9.9375 "/></g></g></g></g><g fill="#fefeff" fill-opacity="1"><g transform="translate(48.088685, 13.088253)"><g><path d="M 0.421875 0 L 0.421875 -9.65625 L 2.421875 -9.65625 L 3.296875 -5.03125 L 3.296875 -9.65625 L 5.171875 -9.65625 L 5.171875 0 L 3.28125 0 L 2.3125 -4.828125 L 2.3125 0 Z M 0.421875 0 "/></g></g></g><g fill="#fefeff" fill-opacity="1"><g transform="translate(54.250464, 13.088253)"><g/></g></g><g clip-path="url(#7870322d37)"><g fill="#fefeff" fill-opacity="1"><g transform="translate(0.323316, 27.376219)"><g><path d="M 0.140625 0 L 1.171875 -5.125 L 0.359375 -9.65625 L 2.25 -9.65625 L 2.75 -6.34375 L 3.1875 -9.65625 L 5.09375 -9.65625 L 4.25 -5.125 L 5.296875 0 L 3.34375 0 L 2.734375 -3.78125 L 2.109375 0 Z M 0.140625 0 "/></g></g></g></g><g fill="#fefeff" fill-opacity="1"><g transform="translate(6.317768, 27.376219)"><g><path d="M 2.65625 0.09375 C 1.863281 0.09375 1.273438 -0.128906 0.890625 -0.578125 C 0.503906 -1.035156 0.3125 -1.703125 0.3125 -2.578125 L 0.3125 -9.65625 L 2.1875 -9.65625 L 2.1875 -2.65625 C 2.1875 -2.351562 2.21875 -2.113281 2.28125 -1.9375 C 2.34375 -1.769531 2.46875 -1.6875 2.65625 -1.6875 C 2.851562 -1.6875 2.984375 -1.769531 3.046875 -1.9375 C 3.109375 -2.101562 3.140625 -2.34375 3.140625 -2.65625 L 3.140625 -9.65625 L 5.015625 -9.65625 L 5.015625 -2.578125 C 5.015625 -1.703125 4.820312 -1.035156 4.4375 -0.578125 C 4.050781 -0.128906 3.457031 0.09375 2.65625 0.09375 Z M 2.65625 0.09375 "/></g></g></g><g fill="#fefeff" fill-opacity="1"><g transform="translate(12.199977, 27.376219)"><g><path d="M 1.3125 0 L 0.125 -9.65625 L 1.96875 -9.65625 L 2.671875 -3.09375 L 3.296875 -9.65625 L 5.140625 -9.65625 L 3.953125 0 Z M 1.3125 0 "/></g></g></g><g fill="#fefeff" fill-opacity="1"><g transform="translate(18.026059, 27.376219)"><g><path d="M 0.421875 0 L 0.421875 -9.65625 L 4.296875 -9.65625 L 4.296875 -7.78125 L 2.390625 -7.78125 L 2.390625 -5.90625 L 4.21875 -5.90625 L 4.21875 -4.09375 L 2.390625 -4.09375 L 2.390625 -1.875 L 4.421875 -1.875 L 4.421875 0 Z M 0.421875 0 "/></g></g></g><g fill="#fefeff" fill-opacity="1"><g transform="translate(23.212345, 27.376219)"><g><path d="M 0.421875 0 L 0.421875 -9.65625 L 2.421875 -9.65625 L 3.296875 -5.03125 L 3.296875 -9.65625 L 5.171875 -9.65625 L 5.171875 0 L 3.28125 0 L 2.3125 -4.828125 L 2.3125 0 Z M 0.421875 0 "/></g></g></g><g fill="#fefeff" fill-opacity="1"><g transform="translate(29.363939, 27.376219)"><g><path d="M 0.34375 0 L 0.34375 -9.65625 L 2.203125 -9.65625 L 2.203125 0 Z M 0.34375 0 "/></g></g></g><g fill="#fefeff" fill-opacity="1"><g transform="translate(32.473698, 27.376219)"><g><path d="M 0.421875 0 L 0.421875 -9.65625 L 2.359375 -9.65625 L 2.359375 -1.640625 L 4.34375 -1.640625 L 4.34375 0 Z M 0.421875 0 "/></g></g></g><g clip-path="url(#cec70e53e6)"><g fill="#fefeff" fill-opacity="1"><g transform="translate(0.323316, 41.664185)"><g><path d="M 0.421875 -9.65625 L 3.09375 -9.65625 C 3.78125 -9.65625 4.296875 -9.460938 4.640625 -9.078125 C 4.984375 -8.691406 5.160156 -8.125 5.171875 -7.375 L 5.1875 -2.859375 C 5.195312 -1.910156 5.03125 -1.195312 4.6875 -0.71875 C 4.351562 -0.238281 3.796875 0 3.015625 0 L 0.421875 0 Z M 2.703125 -1.703125 C 3.054688 -1.703125 3.234375 -1.875 3.234375 -2.21875 L 3.234375 -7.203125 C 3.234375 -7.421875 3.21875 -7.582031 3.1875 -7.6875 C 3.15625 -7.800781 3.09375 -7.875 3 -7.90625 C 2.90625 -7.945312 2.765625 -7.96875 2.578125 -7.96875 L 2.375 -7.96875 L 2.375 -1.703125 Z M 2.703125 -1.703125 "/></g></g></g></g><g fill="#fefeff" fill-opacity="1"><g transform="translate(6.418782, 41.664185)"><g><path d="M 0.421875 0 L 0.421875 -9.65625 L 4.296875 -9.65625 L 4.296875 -7.78125 L 2.390625 -7.78125 L 2.390625 -5.90625 L 4.21875 -5.90625 L 4.21875 -4.09375 L 2.390625 -4.09375 L 2.390625 -1.875 L 4.421875 -1.875 L 4.421875 0 Z M 0.421875 0 "/></g></g></g><g clip-path="url(#984ee39eae)"><g fill="#fefeff" fill-opacity="1"><g transform="translate(0.323316, 55.95215)"><g><path d="M 0.421875 -9.65625 L 3.09375 -9.65625 C 3.78125 -9.65625 4.296875 -9.460938 4.640625 -9.078125 C 4.984375 -8.691406 5.160156 -8.125 5.171875 -7.375 L 5.1875 -2.859375 C 5.195312 -1.910156 5.03125 -1.195312 4.6875 -0.71875 C 4.351562 -0.238281 3.796875 0 3.015625 0 L 0.421875 0 Z M 2.703125 -1.703125 C 3.054688 -1.703125 3.234375 -1.875 3.234375 -2.21875 L 3.234375 -7.203125 C 3.234375 -7.421875 3.21875 -7.582031 3.1875 -7.6875 C 3.15625 -7.800781 3.09375 -7.875 3 -7.90625 C 2.90625 -7.945312 2.765625 -7.96875 2.578125 -7.96875 L 2.375 -7.96875 L 2.375 -1.703125 Z M 2.703125 -1.703125 "/></g></g></g></g><g fill="#fefeff" fill-opacity="1"><g transform="translate(6.418782, 55.95215)"><g><path d="M 0.34375 0 L 0.34375 -9.65625 L 2.203125 -9.65625 L 2.203125 0 Z M 0.34375 0 "/></g></g></g><g fill="#fefeff" fill-opacity="1"><g transform="translate(9.528541, 55.95215)"><g><path d="M 0.171875 0 L 1.09375 -9.65625 L 4.375 -9.65625 L 5.296875 0 L 3.453125 0 L 3.328125 -1.5625 L 2.15625 -1.5625 L 2.046875 0 Z M 2.296875 -3.09375 L 3.171875 -3.09375 L 2.75 -8.015625 L 2.65625 -8.015625 Z M 2.296875 -3.09375 "/></g></g></g><g fill="#fefeff" fill-opacity="1"><g transform="translate(15.53422, 55.95215)"><g><path d="M 0.421875 -9.65625 L 3.046875 -9.65625 C 3.742188 -9.65625 4.253906 -9.476562 4.578125 -9.125 C 4.898438 -8.78125 5.0625 -8.222656 5.0625 -7.453125 L 5.0625 -7.015625 C 5.0625 -6.097656 4.726562 -5.550781 4.0625 -5.375 C 4.46875 -5.269531 4.753906 -5.023438 4.921875 -4.640625 C 5.085938 -4.253906 5.171875 -3.75 5.171875 -3.125 C 5.171875 -2.09375 5.015625 -1.3125 4.703125 -0.78125 C 4.398438 -0.257812 3.847656 0 3.046875 0 L 0.421875 0 Z M 2.703125 -6.015625 C 2.867188 -6.015625 2.984375 -6.078125 3.046875 -6.203125 C 3.109375 -6.328125 3.140625 -6.503906 3.140625 -6.734375 L 3.140625 -7.703125 C 3.140625 -8.015625 3 -8.171875 2.71875 -8.171875 L 2.3125 -8.171875 L 2.3125 -6.015625 Z M 2.5 -1.703125 C 3.007812 -1.703125 3.265625 -1.941406 3.265625 -2.421875 L 3.265625 -3.625 C 3.265625 -3.914062 3.21875 -4.132812 3.125 -4.28125 C 3.039062 -4.425781 2.890625 -4.5 2.671875 -4.5 L 2.3125 -4.5 L 2.3125 -1.703125 Z M 2.5 -1.703125 "/></g></g></g><g fill="#fefeff" fill-opacity="1"><g transform="translate(21.472545, 55.95215)"><g><path d="M 0.421875 0 L 0.421875 -9.65625 L 4.296875 -9.65625 L 4.296875 -7.78125 L 2.390625 -7.78125 L 2.390625 -5.90625 L 4.21875 -5.90625 L 4.21875 -4.09375 L 2.390625 -4.09375 L 2.390625 -1.875 L 4.421875 -1.875 L 4.421875 0 Z M 0.421875 0 "/></g></g></g><g fill="#fefeff" fill-opacity="1"><g transform="translate(26.658831, 55.95215)"><g><path d="M 1.265625 0 L 1.265625 -7.796875 L 0.109375 -7.796875 L 0.109375 -9.65625 L 4.34375 -9.65625 L 4.34375 -7.796875 L 3.1875 -7.796875 L 3.1875 0 Z M 1.265625 0 "/></g></g></g><g fill="#fefeff" fill-opacity="1"><g transform="translate(31.665532, 55.95215)"><g><path d="M 0.421875 0 L 0.421875 -9.65625 L 4.296875 -9.65625 L 4.296875 -7.78125 L 2.390625 -7.78125 L 2.390625 -5.90625 L 4.21875 -5.90625 L 4.21875 -4.09375 L 2.390625 -4.09375 L 2.390625 -1.875 L 4.421875 -1.875 L 4.421875 0 Z M 0.421875 0 "/></g></g></g><g fill="#fefeff" fill-opacity="1"><g transform="translate(36.851819, 55.95215)"><g><path d="M 2.71875 0.09375 C 1.84375 0.09375 1.207031 -0.125 0.8125 -0.5625 C 0.425781 -1 0.234375 -1.695312 0.234375 -2.65625 L 0.234375 -3.609375 L 2.140625 -3.609375 L 2.140625 -2.40625 C 2.140625 -1.925781 2.289062 -1.6875 2.59375 -1.6875 C 2.769531 -1.6875 2.890625 -1.734375 2.953125 -1.828125 C 3.023438 -1.929688 3.0625 -2.101562 3.0625 -2.34375 C 3.0625 -2.65625 3.019531 -2.914062 2.9375 -3.125 C 2.863281 -3.332031 2.769531 -3.503906 2.65625 -3.640625 C 2.539062 -3.785156 2.332031 -4.003906 2.03125 -4.296875 L 1.203125 -5.125 C 0.554688 -5.75 0.234375 -6.445312 0.234375 -7.21875 C 0.234375 -8.039062 0.421875 -8.664062 0.796875 -9.09375 C 1.179688 -9.519531 1.734375 -9.734375 2.453125 -9.734375 C 3.328125 -9.734375 3.953125 -9.503906 4.328125 -9.046875 C 4.710938 -8.585938 4.90625 -7.867188 4.90625 -6.890625 L 2.9375 -6.890625 L 2.9375 -7.546875 C 2.9375 -7.671875 2.898438 -7.769531 2.828125 -7.84375 C 2.753906 -7.925781 2.65625 -7.96875 2.53125 -7.96875 C 2.375 -7.96875 2.257812 -7.925781 2.1875 -7.84375 C 2.113281 -7.757812 2.078125 -7.644531 2.078125 -7.5 C 2.078125 -7.1875 2.257812 -6.863281 2.625 -6.53125 L 3.734375 -5.453125 C 4.003906 -5.191406 4.222656 -4.945312 4.390625 -4.71875 C 4.566406 -4.488281 4.707031 -4.21875 4.8125 -3.90625 C 4.914062 -3.601562 4.96875 -3.238281 4.96875 -2.8125 C 4.96875 -1.851562 4.789062 -1.128906 4.4375 -0.640625 C 4.09375 -0.148438 3.519531 0.09375 2.71875 0.09375 Z M 2.71875 0.09375 "/></g></g></g><g fill="#fefeff" fill-opacity="1"><g transform="translate(42.591881, 55.95215)"><g/></g></g></g></g></g></g></svg>