<svg xmlns="http://www.w3.org/2000/svg" xmlns:xlink="http://www.w3.org/1999/xlink" width="40" zoomAndPan="magnify" viewBox="0 0 30 30.000001" height="40" preserveAspectRatio="xMidYMid meet" version="1.0"><defs><g/><clipPath id="82570bb990"><path d="M 7.871094 7.203125 L 14.0625 7.203125 L 14.0625 13.011719 L 7.871094 13.011719 Z M 7.871094 7.203125 " clip-rule="nonzero"/></clipPath><clipPath id="2768fefcff"><path d="M 14.0625 7.203125 C 14.0625 8.734375 13.40625 10.226562 12.253906 11.308594 C 11.105469 12.390625 9.515625 13.011719 7.890625 13.011719 L 7.890625 10.046875 C 8.6875 10.046875 9.464844 9.746094 10.027344 9.214844 C 10.589844 8.683594 10.914062 7.953125 10.914062 7.203125 Z M 14.0625 7.203125 " clip-rule="nonzero"/></clipPath><clipPath id="b406b2b186"><path d="M 0.871094 0.203125 L 7.0625 0.203125 L 7.0625 6.011719 L 0.871094 6.011719 Z M 0.871094 0.203125 " clip-rule="nonzero"/></clipPath><clipPath id="ba7ff76cbe"><path d="M 7.0625 0.203125 C 7.0625 1.734375 6.40625 3.226562 5.253906 4.308594 C 4.105469 5.390625 2.515625 6.011719 0.890625 6.011719 L 0.890625 3.046875 C 1.6875 3.046875 2.464844 2.746094 3.027344 2.214844 C 3.589844 1.683594 3.914062 0.953125 3.914062 0.203125 Z M 7.0625 0.203125 " clip-rule="nonzero"/></clipPath><clipPath id="04801636f2"><rect x="0" width="8" y="0" height="7"/></clipPath><clipPath id="f53e13d50e"><path d="M 0.929688 0.660156 L 7.910156 0.660156 L 7.910156 7.203125 L 0.929688 7.203125 Z M 0.929688 0.660156 " clip-rule="nonzero"/></clipPath><clipPath id="8c64c36dd7"><path d="M 0.929688 7.203125 C 0.929688 5.480469 1.671875 3.796875 2.96875 2.578125 C 4.265625 1.359375 6.054688 0.660156 7.890625 0.660156 L 7.890625 4 C 6.992188 4 6.113281 4.339844 5.480469 4.9375 C 4.84375 5.535156 4.480469 6.359375 4.480469 7.203125 Z M 0.929688 7.203125 " clip-rule="nonzero"/></clipPath><clipPath id="614b641233"><path d="M 0.929688 0.660156 L 7.910156 0.660156 L 7.910156 7.203125 L 0.929688 7.203125 Z M 0.929688 0.660156 " clip-rule="nonzero"/></clipPath><clipPath id="ad9d588b43"><path d="M 0.929688 7.203125 C 0.929688 5.480469 1.671875 3.796875 2.96875 2.578125 C 4.265625 1.359375 6.054688 0.660156 7.890625 0.660156 L 7.890625 4 C 6.992188 4 6.113281 4.339844 5.480469 4.9375 C 4.84375 5.535156 4.480469 6.359375 4.480469 7.203125 Z M 0.929688 7.203125 " clip-rule="nonzero"/></clipPath><clipPath id="7a632c31c4"><rect x="0" width="8" y="0" height="8"/></clipPath><clipPath id="dcd2efcccd"><path d="M 4.410156 5.113281 L 12.371094 5.113281 L 12.371094 7.738281 L 4.410156 7.738281 Z M 4.410156 5.113281 " clip-rule="nonzero"/></clipPath><clipPath id="072280d595"><rect x="0" width="15" y="0" height="14"/></clipPath><clipPath id="8c9fe716a7"><path d="M 17 2 L 18.691406 2 L 18.691406 7 L 17 7 Z M 17 2 " clip-rule="nonzero"/></clipPath><clipPath id="e75efc596c"><rect x="0" width="19" y="0" height="8"/></clipPath></defs><g transform="matrix(1, 0, 0, 1, 14, 7)"><g clip-path="url(#072280d595)"><g clip-path="url(#82570bb990)"><g clip-path="url(#2768fefcff)"><g transform="matrix(1, 0, 0, 1, 7, 7)"><g clip-path="url(#04801636f2)"><g clip-path="url(#b406b2b186)"><g clip-path="url(#ba7ff76cbe)"><path fill="#ffffff" d="M 7.0625 6.011719 L 0.894531 6.011719 L 0.894531 0.203125 L 7.0625 0.203125 Z M 7.0625 6.011719 " fill-opacity="1" fill-rule="nonzero"/></g></g></g></g></g></g><g clip-path="url(#f53e13d50e)"><g clip-path="url(#8c64c36dd7)"><g transform="matrix(1, 0, 0, 1, 0, 0.000000000000005329)"><g clip-path="url(#7a632c31c4)"><g clip-path="url(#614b641233)"><g clip-path="url(#ad9d588b43)"><path fill="#ffffff" d="M 0.929688 0.660156 L 7.882812 0.660156 L 7.882812 7.203125 L 0.929688 7.203125 Z M 0.929688 0.660156 " fill-opacity="1" fill-rule="nonzero"/></g></g></g></g></g></g><g clip-path="url(#dcd2efcccd)"><path fill="#ffffff" d="M 4.691406 6.5625 C 4.234375 7.074219 3.367188 7.445312 2.929688 7.964844 C 3.011719 7.890625 3.335938 7.875 3.335938 7.875 C 4.199219 7.769531 4.808594 6.707031 5.316406 6.058594 C 5.949219 5.242188 6.296875 5.835938 6.589844 5.949219 C 6.804688 6.027344 7.296875 6.699219 7.339844 6.699219 C 7.988281 6.6875 8.351562 5.816406 8.589844 6.132812 C 9.195312 6.933594 9.398438 6.832031 9.816406 7.28125 C 10.023438 7.507812 10.511719 6.617188 10.898438 7.238281 C 11.09375 7.546875 11.429688 7.632812 11.6875 7.847656 C 12.109375 8.195312 12.40625 8.023438 12.199219 7.90625 C 11.445312 7.472656 11.558594 7.609375 10.878906 6.957031 C 10.085938 6.199219 10.449219 7.824219 9.351562 6.554688 C 8.132812 5.144531 8.34375 6.308594 7.570312 6.4375 C 7.253906 6.488281 6.683594 5.117188 5.9375 5.375 C 5.898438 5.390625 4.78125 6.46875 4.695312 6.5625 " fill-opacity="1" fill-rule="evenodd"/></g></g></g><g transform="matrix(1, 0, 0, 1, 2, 14)"><g clip-path="url(#e75efc596c)"><g fill="#ffffff" fill-opacity="1"><g transform="translate(0.944143, 6.049625)"><g><path d="M 2.640625 -1.1875 L 1.3125 -1.1875 L 0.921875 0 L 0.078125 0 L 1.5 -3.9375 L 2.5 -3.9375 L 3.890625 0 L 3.03125 0 Z M 1.984375 -3.265625 L 1.515625 -1.8125 L 2.4375 -1.8125 Z M 1.984375 -3.265625 "/></g></g></g><g fill="#ffffff" fill-opacity="1"><g transform="translate(4.797617, 6.049625)"><g><path d="M 2.9375 0 L 1.96875 -1.484375 L 1.046875 0 L 0.109375 0 L 1.515625 -1.984375 L 0.203125 -3.9375 L 1.125 -3.9375 L 2 -2.484375 L 2.921875 -3.9375 L 3.828125 -3.9375 L 2.453125 -2 L 3.859375 0 Z M 2.9375 0 "/></g></g></g><g fill="#ffffff" fill-opacity="1"><g transform="translate(8.651092, 6.049625)"><g><path d="M 3.703125 -3.9375 L 3.703125 -1.609375 C 3.703125 -1.421875 3.695312 -1.265625 3.6875 -1.140625 C 3.664062 -0.785156 3.519531 -0.492188 3.25 -0.265625 C 2.988281 -0.0351562 2.597656 0.078125 2.078125 0.078125 C 1.554688 0.078125 1.160156 -0.0351562 0.890625 -0.265625 C 0.628906 -0.492188 0.488281 -0.785156 0.46875 -1.140625 C 0.457031 -1.265625 0.453125 -1.421875 0.453125 -1.609375 L 0.453125 -3.9375 L 1.234375 -3.9375 L 1.234375 -1.515625 C 1.234375 -1.390625 1.238281 -1.296875 1.25 -1.234375 C 1.269531 -1.003906 1.347656 -0.820312 1.484375 -0.6875 C 1.617188 -0.5625 1.816406 -0.5 2.078125 -0.5 C 2.335938 -0.5 2.535156 -0.5625 2.671875 -0.6875 C 2.804688 -0.820312 2.882812 -1.003906 2.90625 -1.234375 C 2.914062 -1.296875 2.921875 -1.390625 2.921875 -1.515625 L 2.921875 -3.9375 Z M 3.703125 -3.9375 "/></g></g></g><g fill="#ffffff" fill-opacity="1"><g transform="translate(12.652776, 6.049625)"><g><path d="M 2.359375 -3.90625 C 2.847656 -3.851562 3.238281 -3.664062 3.53125 -3.34375 C 3.832031 -3.03125 3.984375 -2.585938 3.984375 -2.015625 C 3.984375 -1.441406 3.832031 -0.976562 3.53125 -0.625 C 3.226562 -0.28125 2.835938 -0.078125 2.359375 -0.015625 C 2.222656 -0.00390625 2.054688 0 1.859375 0 L 0.5 0 L 0.5 -3.9375 L 1.859375 -3.9375 C 2.066406 -3.9375 2.234375 -3.925781 2.359375 -3.90625 Z M 2.171875 -0.640625 C 2.472656 -0.679688 2.710938 -0.820312 2.890625 -1.0625 C 3.066406 -1.300781 3.15625 -1.613281 3.15625 -2 C 3.15625 -2.382812 3.066406 -2.6875 2.890625 -2.90625 C 2.722656 -3.125 2.492188 -3.253906 2.203125 -3.296875 C 2.078125 -3.304688 1.9375 -3.3125 1.78125 -3.3125 L 1.296875 -3.3125 L 1.296875 -0.625 L 1.765625 -0.625 C 1.953125 -0.625 2.085938 -0.628906 2.171875 -0.640625 Z M 2.171875 -0.640625 "/></g></g></g><g clip-path="url(#8c9fe716a7)"><g fill="#ffffff" fill-opacity="1"><g transform="translate(16.819773, 6.049625)"><g><path d="M 1.296875 0 L 0.5 0 L 0.5 -3.9375 L 1.296875 -3.9375 Z M 1.296875 0 "/></g></g></g></g></g></g></svg>